<svg width="50" height="58" viewBox="0 0 50 58" fill="none" xmlns="http://www.w3.org/2000/svg">
<path d="M44.6875 0.875H1.5625C1.31386 0.875 1.0754 0.973772 0.899588 1.14959C0.723772 1.3254 0.625 1.56386 0.625 1.8125V52.4375C0.626396 53.6803 1.1207 54.8717 1.99948 55.7505C2.87825 56.6293 4.06973 57.1236 5.3125 57.125H48.4375C48.6861 57.125 48.9246 57.0262 49.1004 56.8504C49.2762 56.6746 49.375 56.4361 49.375 56.1875V3.6875C49.375 3.43886 49.2762 3.2004 49.1004 3.02459C48.9246 2.84877 48.6861 2.75 48.4375 2.75H45.625V1.8125C45.625 1.56386 45.5262 1.3254 45.3504 1.14959C45.1746 0.973772 44.9361 0.875 44.6875 0.875ZM6.25 2.75H43.75V51.5H6.25V2.75ZM2.5 2.75H4.375V51.5H2.5V2.75ZM47.5 4.625V55.25H5.3125C4.73112 55.2493 4.16421 55.0686 3.68953 54.7329C3.21486 54.3973 2.85567 53.9229 2.66125 53.375H44.6875C44.9361 53.375 45.1746 53.2762 45.3504 53.1004C45.5262 52.9246 45.625 52.6861 45.625 52.4375V4.625H47.5Z" fill="white"/>
<path d="M30.3594 34.275C31.5003 33.4471 32.4477 32.3811 33.1361 31.151C33.8245 29.9208 34.2374 28.5558 34.3463 27.1503C34.4552 25.7449 34.2575 24.3326 33.7668 23.011C33.2761 21.6895 32.5042 20.4904 31.5044 19.4966C30.6339 18.6278 29.5978 17.9427 28.4575 17.4818C27.3172 17.021 26.096 16.7938 24.8663 16.8137C19.7608 16.8866 15.6152 21.1973 15.625 26.4231C15.6241 27.957 15.9881 29.4691 16.6868 30.8346C17.3855 32.2001 18.3989 33.3799 19.6435 34.2765C19.7073 34.3246 19.7588 34.3871 19.7937 34.459C19.8286 34.5308 19.8459 34.61 19.8442 34.6898V35.9414C19.3785 36.2099 18.9996 36.6064 18.7524 37.0837C18.5051 37.561 18.3999 38.0992 18.4493 38.6345C18.4986 39.1698 18.7004 39.6798 19.0307 40.1039C19.361 40.528 19.8061 40.8485 20.313 41.0273V42.1255C20.3139 42.8712 20.6105 43.586 21.1377 44.1133C21.665 44.6405 22.3798 44.9371 23.1255 44.938H26.8755C27.6211 44.9371 28.336 44.6405 28.8633 44.1133C29.3905 43.586 29.6871 42.8712 29.688 42.1255V41.0268C30.1949 40.8479 30.6399 40.5274 30.9703 40.1033C31.3006 39.6792 31.5024 39.1693 31.5517 38.634C31.601 38.0987 31.4959 37.5604 31.2486 37.0831C31.0014 36.6058 30.6224 36.2093 30.1567 35.9408V34.6897C30.1552 34.6095 30.1727 34.53 30.208 34.4579C30.2432 34.3858 30.2951 34.3231 30.3594 34.275ZM17.5005 26.4197C17.4925 22.2152 20.809 18.7471 24.8936 18.6887C25.8745 18.675 26.8482 18.8576 27.7575 19.2257C28.6668 19.5938 29.4933 20.1399 30.1885 20.8321C30.9934 21.6339 31.6149 22.6007 32.01 23.666C32.4052 24.7312 32.5646 25.8695 32.4773 27.0022C32.39 28.135 32.058 29.2354 31.5043 30.2275C30.9507 31.2196 30.1884 32.0798 29.2701 32.7489C28.963 32.9706 28.7131 33.2623 28.5413 33.5998C28.3694 33.9373 28.2804 34.311 28.2817 34.6897V35.563H21.7192V34.6898C21.7208 34.3115 21.6321 33.9382 21.4606 33.6009C21.289 33.2636 21.0396 32.9721 20.7329 32.7505C19.7307 32.0272 18.9149 31.0758 18.3529 29.9751C17.7909 28.8743 17.4987 27.6556 17.5005 26.4197ZM26.8755 43.063H23.1255C22.8769 43.0627 22.6386 42.9639 22.4629 42.7881C22.2871 42.6124 22.1883 42.3741 22.188 42.1255V41.188H27.813V42.1255C27.8127 42.3741 27.7138 42.6124 27.5381 42.7881C27.3623 42.9639 27.124 43.0627 26.8755 43.063ZM28.7505 39.313H21.2505C21.0018 39.313 20.7634 39.2142 20.5876 39.0384C20.4118 38.8626 20.313 38.6241 20.313 38.3755C20.313 38.1269 20.4118 37.8884 20.5876 37.7126C20.7634 37.5368 21.0018 37.438 21.2505 37.438H28.7505C28.9991 37.438 29.2376 37.5368 29.4134 37.7126C29.5892 37.8884 29.688 38.1269 29.688 38.3755C29.688 38.6241 29.5892 38.8626 29.4134 39.0384C29.2376 39.2142 28.9991 39.313 28.7505 39.313Z" fill="white"/>
<path d="M26.5208 22.7345C27.1103 22.9819 27.6362 23.3595 28.0591 23.8389C28.4821 24.3184 28.7911 24.8873 28.963 25.503C28.9949 25.6232 29.0504 25.7357 29.1262 25.8342C29.202 25.9327 29.2966 26.0152 29.4045 26.0768C29.5125 26.1384 29.6316 26.1779 29.755 26.193C29.8783 26.2081 30.0035 26.1986 30.1231 26.1649C30.2427 26.1313 30.3545 26.0741 30.4518 25.9969C30.5492 25.9196 30.6302 25.8238 30.6902 25.7149C30.7502 25.6061 30.7879 25.4864 30.8012 25.3628C30.8145 25.2392 30.8031 25.1143 30.7677 24.9951C30.5177 24.1054 30.0696 23.2838 29.457 22.5917C28.8445 21.8997 28.0833 21.3552 27.2305 20.999C27.1163 20.951 26.9937 20.9261 26.8699 20.9258C26.746 20.9254 26.6233 20.9496 26.5088 20.997C26.3943 21.0443 26.2904 21.1139 26.203 21.2017C26.1156 21.2894 26.0464 21.3937 25.9995 21.5083C25.9526 21.623 25.9289 21.7458 25.9297 21.8696C25.9305 21.9935 25.9559 22.116 26.0044 22.23C26.0528 22.344 26.1234 22.4473 26.212 22.5338C26.3006 22.6204 26.4055 22.6886 26.5206 22.7344L26.5208 22.7345Z" fill="white"/>
<path d="M25 14.9375C25.2486 14.9375 25.4871 14.8387 25.6629 14.6629C25.8387 14.4871 25.9375 14.2486 25.9375 14V12.125C25.9375 11.8764 25.8387 11.6379 25.6629 11.4621C25.4871 11.2863 25.2486 11.1875 25 11.1875C24.7514 11.1875 24.5129 11.2863 24.3371 11.4621C24.1613 11.6379 24.0625 11.8764 24.0625 12.125V14C24.0625 14.2486 24.1613 14.4871 24.3371 14.6629C24.5129 14.8387 24.7514 14.9375 25 14.9375Z" fill="white"/>
<path d="M18.7226 15.1568C18.8238 15.3839 19.011 15.5616 19.2431 15.6507C19.4752 15.7398 19.7333 15.733 19.9604 15.6319C20.1876 15.5308 20.3652 15.3436 20.4543 15.1114C20.5434 14.8793 20.5367 14.6213 20.4355 14.3941L19.6729 12.6812C19.6228 12.5687 19.5511 12.4672 19.4618 12.3825C19.3725 12.2977 19.2673 12.2314 19.1524 12.1873C19.0375 12.1431 18.915 12.1221 18.7919 12.1253C18.6688 12.1285 18.5476 12.156 18.4351 12.2061C18.3226 12.2561 18.2211 12.3279 18.1364 12.4172C18.0516 12.5065 17.9853 12.6116 17.9412 12.7265C17.8971 12.8415 17.876 12.964 17.8792 13.0871C17.8825 13.2101 17.9099 13.3314 17.96 13.4438L18.7226 15.1568Z" fill="white"/>
<path d="M15.7905 17.2873L14.397 16.0327C14.3061 15.947 14.199 15.8803 14.0819 15.8366C13.9649 15.7929 13.8403 15.773 13.7155 15.7781C13.5906 15.7833 13.4681 15.8133 13.355 15.8665C13.2419 15.9196 13.1406 15.9948 13.057 16.0877C12.9735 16.1806 12.9093 16.2892 12.8683 16.4073C12.8273 16.5253 12.8103 16.6503 12.8183 16.775C12.8264 16.8997 12.8592 17.0215 12.915 17.1333C12.9708 17.2451 13.0483 17.3447 13.1431 17.4261L14.5366 18.6808C14.7216 18.8456 14.9644 18.9305 15.2118 18.9168C15.4592 18.9032 15.6911 18.7922 15.8569 18.608C16.0227 18.4239 16.1089 18.1816 16.0965 17.9341C16.0842 17.6866 15.9744 17.4541 15.7911 17.2873H15.7905Z" fill="white"/>
<path d="M12.7236 21.8188L10.9404 21.2394C10.7044 21.1644 10.4483 21.1857 10.228 21.2988C10.0077 21.412 9.84112 21.6077 9.76461 21.8432C9.68811 22.0787 9.7079 22.3349 9.81966 22.5559C9.93143 22.7769 10.1261 22.9447 10.3611 23.0227L12.1444 23.602C12.2617 23.6409 12.3856 23.6563 12.5088 23.6471C12.6321 23.638 12.7523 23.6046 12.8626 23.5488C12.9729 23.493 13.0711 23.416 13.1515 23.3221C13.2319 23.2282 13.2929 23.1194 13.3311 23.0018C13.3693 22.8843 13.3839 22.7603 13.374 22.6371C13.3641 22.5139 13.3299 22.3939 13.2735 22.2839C13.217 22.174 13.1394 22.0763 13.045 21.9965C12.9506 21.9166 12.8414 21.8562 12.7236 21.8188Z" fill="white"/>
<path d="M11.7676 27.2037L9.90293 27.3996C9.66402 27.4245 9.44377 27.5401 9.28762 27.7226C9.13147 27.9052 9.05134 28.1407 9.06375 28.3806C9.07617 28.6204 9.18019 28.8464 9.35435 29.0118C9.52851 29.1772 9.75952 29.2695 9.99973 29.2696C10.0328 29.2696 10.0659 29.2678 10.0989 29.2644L11.9636 29.0684C12.2095 29.0408 12.4346 28.917 12.5897 28.7242C12.7447 28.5313 12.8173 28.2849 12.7914 28.0388C12.7655 27.7926 12.6434 27.5667 12.4516 27.4102C12.2598 27.2538 12.0139 27.1796 11.7676 27.2037Z" fill="white"/>
<path d="M40.0981 27.401L38.2334 27.2051C38.1105 27.1913 37.9861 27.2019 37.8674 27.2364C37.7486 27.2709 37.6378 27.3286 37.5415 27.4061C37.4451 27.4836 37.365 27.5794 37.3058 27.688C37.2466 27.7965 37.2095 27.9158 37.1965 28.0387C37.1836 28.1617 37.1952 28.2861 37.2305 28.4046C37.2658 28.5231 37.3243 28.6335 37.4024 28.7293C37.4806 28.8251 37.5769 28.9045 37.6859 28.963C37.7949 29.0214 37.9144 29.0577 38.0375 29.0698L39.9022 29.2658C39.9351 29.2692 39.9682 29.2709 40.0013 29.271C40.2415 29.2709 40.4725 29.1786 40.6467 29.0132C40.8209 28.8478 40.9249 28.6218 40.9373 28.3819C40.9497 28.142 40.8696 27.9065 40.7134 27.724C40.5573 27.5415 40.337 27.4259 40.0981 27.401Z" fill="white"/>
<path d="M37.8537 23.6017L39.6369 23.0223C39.7547 22.9848 39.8639 22.9245 39.9583 22.8446C40.0527 22.7648 40.1303 22.6671 40.1868 22.5572C40.2432 22.4472 40.2774 22.3272 40.2873 22.204C40.2972 22.0808 40.2826 21.9568 40.2444 21.8393C40.2062 21.7217 40.1452 21.6129 40.0648 21.519C39.9844 21.4251 39.8862 21.3481 39.7759 21.2923C39.6656 21.2365 39.5454 21.2031 39.4221 21.194C39.2988 21.1848 39.175 21.2002 39.0577 21.2391L37.2744 21.8184C37.1567 21.8559 37.0474 21.9163 36.9531 21.9961C36.8587 22.0759 36.7811 22.1736 36.7246 22.2836C36.6682 22.3935 36.634 22.5136 36.6241 22.6368C36.6142 22.76 36.6288 22.8839 36.667 23.0015C36.7051 23.119 36.7662 23.2279 36.8466 23.3217C36.927 23.4156 37.0252 23.4926 37.1355 23.5484C37.2458 23.6042 37.366 23.6376 37.4893 23.6468C37.6125 23.6559 37.7364 23.6406 37.8537 23.6017Z" fill="white"/>
<path d="M36.9276 16.1033C36.8452 16.0117 36.7456 15.9373 36.6345 15.8843C36.5233 15.8313 36.4028 15.8007 36.2799 15.7943C36.1569 15.7878 36.0338 15.8057 35.9178 15.8468C35.8017 15.8879 35.6949 15.9515 35.6034 16.0339L34.2099 17.2885C34.0311 17.4563 33.9252 17.6875 33.9149 17.9325C33.9046 18.1775 33.9906 18.4168 34.1547 18.5991C34.3187 18.7814 34.5476 18.8921 34.7923 18.9076C35.037 18.9231 35.2781 18.8421 35.4638 18.682L36.8573 17.4272C36.9488 17.3449 37.0233 17.2454 37.0764 17.1343C37.1294 17.0232 37.1601 16.9028 37.1667 16.7798C37.1732 16.6569 37.1554 16.5338 37.1144 16.4178C37.0734 16.3017 37.0099 16.1948 36.9276 16.1033Z" fill="white"/>
<path d="M30.0406 15.6319C30.153 15.682 30.2743 15.7096 30.3974 15.7128C30.5205 15.7161 30.643 15.6951 30.758 15.651C30.8729 15.6068 30.9781 15.5405 31.0674 15.4557C31.1566 15.3709 31.2283 15.2693 31.2783 15.1568L32.041 13.4438C32.1421 13.2167 32.1489 12.9587 32.0598 12.7265C31.9707 12.4944 31.793 12.3072 31.5659 12.2061C31.3387 12.1049 31.0807 12.0982 30.8486 12.1873C30.6164 12.2764 30.4292 12.454 30.3281 12.6812L29.5654 14.3941C29.4643 14.6213 29.4575 14.8793 29.5467 15.1114C29.6358 15.3435 29.8135 15.5307 30.0406 15.6319Z" fill="white"/>
</svg>
