<svg width="60" height="60" viewBox="0 0 60 60" fill="none" xmlns="http://www.w3.org/2000/svg">
<path d="M33.6 37.0001H26.4C26.0817 37.0001 25.7765 36.8948 25.5515 36.7072C25.3264 36.5197 25.2 36.2653 25.2 36.0001V32.2471C25.0272 32.1901 24.8604 32.1321 24.6972 32.0731L21.5124 34.7271C21.2874 34.9146 20.9822 35.02 20.664 35.0201C20.3458 35.02 20.0406 34.9146 19.8156 34.7271L14.7276 30.4871C14.5026 30.2996 14.3763 30.0452 14.3763 29.7801C14.3763 29.5149 14.5026 29.2606 14.7276 29.0731L17.9124 26.4181C17.8404 26.2831 17.772 26.1441 17.7036 26.0001H13.2C12.8817 26.0001 12.5765 25.8947 12.3515 25.7072C12.1264 25.5196 12 25.2653 12 25.0001V19C12 18.7348 12.1264 18.4805 12.3515 18.2929C12.5765 18.1054 12.8817 18 13.2 18H17.7036C17.772 17.856 17.8404 17.717 17.9124 17.581L14.7276 14.927C14.5026 14.7395 14.3763 14.4852 14.3763 14.22C14.3763 13.9549 14.5026 13.7006 14.7276 13.513L19.8156 9.27301C20.0449 9.09234 20.3484 8.99166 20.664 8.99166C20.9795 8.99166 21.2831 9.09234 21.5124 9.27301L24.6972 11.927C24.8604 11.868 25.0272 11.81 25.2 11.753V8C25.2 7.73479 25.3264 7.48043 25.5515 7.29289C25.7765 7.10536 26.0817 7 26.4 7H33.6C33.9183 7 34.2235 7.10536 34.4485 7.29289C34.6736 7.48043 34.8 7.73479 34.8 8V11.753C34.9728 11.81 35.1396 11.868 35.3028 11.927L38.4876 9.27301C38.7126 9.08546 39.0178 8.98006 39.336 8.98001C39.6542 8.98006 39.9594 9.08546 40.1844 9.27301L45.2724 13.513C45.4974 13.7006 45.6237 13.9549 45.6237 14.22C45.6237 14.4852 45.4974 14.7395 45.2724 14.927L42.0876 17.581C42.1596 17.717 42.228 17.856 42.2964 18H46.8C47.1183 18 47.4235 18.1054 47.6485 18.2929C47.8736 18.4805 48 18.7348 48 19V25.0001C48 25.2653 47.8736 25.5196 47.6485 25.7072C47.4235 25.8947 47.1183 26.0001 46.8 26.0001H42.2964C42.228 26.1441 42.1596 26.2831 42.0876 26.4181L45.2724 29.0731C45.4974 29.2606 45.6237 29.5149 45.6237 29.7801C45.6237 30.0452 45.4974 30.2996 45.2724 30.4871L40.1844 34.7271C39.9551 34.9078 39.6515 35.0084 39.336 35.0084C39.0205 35.0084 38.7169 34.9078 38.4876 34.7271L35.3028 32.0731C35.1396 32.1321 34.9728 32.1901 34.8 32.2471V36.0001C34.8 36.2653 34.6736 36.5197 34.4485 36.7072C34.2235 36.8948 33.9183 37.0001 33.6 37.0001ZM27.6 35.0001H32.4V31.5401C32.3999 31.3285 32.4804 31.1223 32.6298 30.9513C32.7793 30.7802 32.99 30.653 33.2316 30.5881C33.8321 30.4336 34.4132 30.231 34.9668 29.9831C35.1945 29.8791 35.4566 29.8394 35.7136 29.8701C35.9707 29.9007 36.2088 30 36.3924 30.1531L39.336 32.6061L42.726 29.7801L39.7836 27.3271C39.6002 27.1742 39.4812 26.9759 39.4444 26.7619C39.4076 26.5479 39.4551 26.3297 39.5796 26.1401C39.8763 25.6784 40.1194 25.1942 40.3056 24.6941C40.3833 24.4925 40.5358 24.3167 40.7411 24.192C40.9464 24.0673 41.1939 24.0001 41.448 24.0001H45.6V20H41.448C41.1939 20 40.9464 19.9328 40.7411 19.8081C40.5358 19.6834 40.3833 19.5076 40.3056 19.306C40.1194 18.8059 39.8763 18.3217 39.5796 17.86C39.4551 17.6704 39.4076 17.4522 39.4444 17.2382C39.4812 17.0242 39.6002 16.8259 39.7836 16.673L42.726 14.22L39.336 11.394L36.3924 13.847C36.2088 14.0001 35.9707 14.0994 35.7136 14.13C35.4566 14.1607 35.1945 14.121 34.9668 14.017C34.413 13.7709 33.8319 13.5699 33.2316 13.417C32.989 13.3518 32.7776 13.2239 32.6281 13.0518C32.4785 12.8797 32.3987 12.6725 32.4 12.46V9.00001H27.6V12.46C27.6001 12.6716 27.5196 12.8778 27.3702 13.0488C27.2207 13.2199 27.01 13.3471 26.7684 13.412C26.1681 13.5649 25.587 13.7659 25.0332 14.012C24.8055 14.116 24.5434 14.1557 24.2864 14.125C24.0293 14.0944 23.7912 13.9951 23.6076 13.842L20.664 11.394L17.28 14.22L20.2224 16.673C20.4058 16.8259 20.5248 17.0242 20.5616 17.2382C20.5984 17.4522 20.5509 17.6704 20.4264 17.86C20.1297 18.3217 19.8866 18.8059 19.7004 19.306C19.6223 19.5084 19.4689 19.6848 19.2624 19.8096C19.0559 19.9344 18.8071 20.0011 18.552 20H14.4V24.0001H18.552C18.8061 24.0001 19.0536 24.0673 19.2589 24.192C19.4642 24.3167 19.6167 24.4925 19.6944 24.6941C19.8806 25.1942 20.1237 25.6784 20.4204 26.1401C20.5449 26.3297 20.5924 26.5479 20.5556 26.7619C20.5188 26.9759 20.3998 27.1742 20.2164 27.3271L17.28 29.7801L20.67 32.6061L23.6136 30.1531C23.7972 30 24.0353 29.9007 24.2924 29.8701C24.5494 29.8394 24.8115 29.8791 25.0392 29.9831C25.5928 30.231 26.1739 30.4336 26.7744 30.5881C27.0149 30.6539 27.2243 30.7814 27.3726 30.9524C27.5209 31.1234 27.6005 31.3291 27.6 31.5401V35.0001Z" fill="white"/>
<path d="M30.0008 28C28.5768 28 27.1847 27.6482 26.0007 26.9889C24.8166 26.3296 23.8938 25.3925 23.3489 24.2961C22.8039 23.1998 22.6613 21.9934 22.9391 20.8295C23.2169 19.6656 23.9027 18.5965 24.9096 17.7574C25.9166 16.9182 27.1995 16.3468 28.5961 16.1153C29.9928 15.8838 31.4405 16.0026 32.7561 16.4567C34.0717 16.9109 35.1962 17.6799 35.9874 18.6666C36.7785 19.6533 37.2008 20.8133 37.2008 22C37.1989 23.5908 36.4397 25.116 35.0898 26.2409C33.74 27.3658 31.9098 27.9985 30.0008 28ZM30.0008 18C29.0514 18 28.1234 18.2346 27.334 18.6741C26.5447 19.1137 25.9295 19.7384 25.5662 20.4693C25.2029 21.2002 25.1078 22.0045 25.293 22.7804C25.4782 23.5563 25.9354 24.269 26.6067 24.8285C27.278 25.3879 28.1332 25.7688 29.0644 25.9232C29.9955 26.0775 30.9606 25.9983 31.8377 25.6956C32.7148 25.3928 33.4644 24.8801 33.9918 24.2223C34.5193 23.5645 34.8008 22.7912 34.8008 22C34.8008 20.9392 34.2951 19.9217 33.3949 19.1716C32.4947 18.4214 31.2738 18 30.0008 18Z" fill="white"/>
<path d="M58.8 44.0002C59.1183 44.0002 59.4235 43.8948 59.6485 43.7073C59.8736 43.5197 60 43.2654 60 43.0002V1C60 0.734786 59.8736 0.480431 59.6485 0.292894C59.4235 0.105357 59.1183 0 58.8 0H7.2C5.29103 0.00158844 3.46079 0.634242 2.11094 1.75912C0.761087 2.884 0.00190612 4.4092 0 6.00002V48.0002C0.00190612 49.591 0.761087 51.1162 2.11094 52.2411C3.46079 53.366 5.29103 53.9986 7.2 54.0002H10.8V59.0002C10.8001 59.198 10.8705 59.3913 11.0023 59.5557C11.1342 59.7201 11.3216 59.8482 11.5408 59.9239C11.7601 59.9996 12.0013 60.0194 12.234 59.9808C12.4668 59.9422 12.6806 59.847 12.8484 59.7072L16.8 56.4142L20.7516 59.7072C20.9194 59.847 21.1332 59.9422 21.366 59.9808C21.5987 60.0194 21.8399 59.9996 22.0592 59.9239C22.2784 59.8482 22.4658 59.7201 22.5977 59.5557C22.7295 59.3913 22.7999 59.198 22.8 59.0002V54.0002H58.8C59.1183 54.0002 59.4235 53.8948 59.6485 53.7073C59.8736 53.5198 60 53.2654 60 53.0002C60 52.735 59.8736 52.4806 59.6485 52.2931C59.4235 52.1055 59.1183 52.0002 58.8 52.0002C57.527 52.0002 56.3061 51.5788 55.4059 50.8286C54.5057 50.0785 54 49.061 54 48.0002C54 46.9393 54.5057 45.9219 55.4059 45.1717C56.3061 44.4216 57.527 44.0002 58.8 44.0002ZM20.4 56.5862L17.6484 54.2932C17.4234 54.1057 17.1182 54.0004 16.8 54.0004C16.4818 54.0004 16.1766 54.1057 15.9516 54.2932L13.2 56.5862V49.0002H20.4V56.5862ZM53.448 52.0002H22.8V49.0002H48C48.3183 49.0002 48.6235 48.8948 48.8485 48.7073C49.0736 48.5197 49.2 48.2654 49.2 48.0002C49.2 47.735 49.0736 47.4806 48.8485 47.2931C48.6235 47.1055 48.3183 47.0002 48 47.0002H6C5.68174 47.0002 5.37652 47.1055 5.15147 47.2931C4.92643 47.4806 4.8 47.735 4.8 48.0002C4.8 48.2654 4.92643 48.5197 5.15147 48.7073C5.37652 48.8948 5.68174 49.0002 6 49.0002H10.8V52.0002H7.2C5.92696 52.0002 4.70606 51.5788 3.80589 50.8286C2.90571 50.0785 2.4 49.061 2.4 48.0002C2.4 46.9393 2.90571 45.9219 3.80589 45.1717C4.70606 44.4216 5.92696 44.0002 7.2 44.0002H53.448C52.2586 45.0967 51.6001 46.5221 51.6001 48.0002C51.6001 49.4783 52.2586 50.9037 53.448 52.0002ZM7.2 42.0001C5.4283 42.0003 3.71902 42.5454 2.4 43.5312V6.00002C2.4 4.93915 2.90571 3.92173 3.80589 3.17158C4.70606 2.42144 5.92696 2.00001 7.2 2.00001H57.6V42.0001H7.2Z" fill="white"/>
</svg>
