<svg width="96" height="96" viewBox="0 0 96 96" fill="none" xmlns="http://www.w3.org/2000/svg">
<g clip-path="url(#clip0)">
<path d="M80.7776 53.7305H69.4307C67.5766 53.7305 66.0745 55.2333 66.0745 57.0867V70.6635C66.0745 68.8102 64.5717 67.3073 62.7183 67.3073H51.3707C49.5166 67.3073 48.0145 68.8094 48.0145 70.6635V79.6146C48.0145 77.7612 46.5117 76.2584 44.6583 76.2584H33.3107C31.4566 76.2584 29.9545 77.7612 29.9545 79.6146V87.9471C29.9545 86.0937 28.4517 84.5909 26.5976 84.5909H15.2507C13.3974 84.5909 11.8945 86.093 11.8945 87.9471V94.3184H84.1345V57.0867C84.1345 55.2333 82.6317 53.7305 80.7776 53.7305Z" fill="#A7C7D3"/>
<path d="M70.9767 55.1462C70.193 55.1462 69.5586 54.5117 69.5586 53.7288V2.22205C69.5586 1.43913 70.193 0.804688 70.9767 0.804688C71.7596 0.804688 72.394 1.43913 72.394 2.22205V53.7288C72.394 54.5117 71.7589 55.1462 70.9767 55.1462Z" fill="#A7C7D3"/>
<path d="M29.9545 94.3173H11.8945V87.946C11.8945 86.0927 13.3974 84.5898 15.2507 84.5898H26.5983C28.4517 84.5898 29.9545 86.0919 29.9545 87.946V94.3173Z" fill="#A7C7D3"/>
<path d="M48.0131 94.3178H29.9531V79.614C29.9531 77.7606 31.456 76.2578 33.3093 76.2578H44.6569C46.5103 76.2578 48.0131 77.7606 48.0131 79.614V94.3178Z" fill="#89B4C9"/>
<path d="M66.0717 94.3157H48.0117V70.6609C48.0117 68.8075 49.5138 67.3047 51.3679 67.3047H62.7155C64.5688 67.3047 66.0717 68.8068 66.0717 70.6609V94.3157Z" fill="#6C96B3"/>
<path d="M84.1342 94.3184H66.0742V57.0867C66.0742 55.2333 67.5763 53.7305 69.4304 53.7305H80.7773C82.6314 53.7305 84.1342 55.2333 84.1342 57.0867V94.3184Z" fill="#618AAA"/>
<path d="M89.1406 95.7332H7.16736C6.38445 95.7332 5.75 95.0987 5.75 94.3158C5.75 93.5329 6.38445 92.8984 7.16736 92.8984H89.1406C89.9235 92.8984 90.5579 93.5329 90.5579 94.3158C90.5579 95.0987 89.9235 95.7332 89.1406 95.7332Z" fill="#2F5066"/>
<path d="M70.9766 15.6963H89.1415C89.7043 15.6963 89.9672 14.9996 89.5449 14.628L84.8264 10.4723C84.5498 10.2296 84.5498 9.79942 84.8264 9.55607L89.5449 5.40103C89.9672 5.02876 89.7043 4.33203 89.1415 4.33203H70.9766V15.6963Z" fill="#FDB659"/>
<path d="M72.424 21.0156L52.746 31.7034C50.9904 32.6573 50.5102 34.3332 49.8975 36.4922L45.9844 50.332L51.1526 52.1071L55.5742 46.4014L59.2962 35.1487L69.1989 29.1316C71.9662 27.4506 73.2822 24.1379 72.424 21.0156Z" fill="#83D9FF"/>
<path d="M72.424 21.0156L70.1534 22.249C69.771 24.2031 68.5905 25.9681 66.8052 27.053L57.7817 32.5356C57.2139 32.8803 56.7873 33.417 56.578 34.0478L55.2896 37.9436C53.9504 41.9922 50.9086 45.2535 46.9628 46.8708L45.9844 50.332L55.5742 46.4022L59.2962 35.1494L69.1989 29.1316C71.9662 27.4506 73.2822 24.1379 72.424 21.0156Z" fill="#5FC9ED"/>
<path d="M55.5742 46.4023L61.2408 53.1002C62.1801 54.3438 62.9971 55.218 62.8276 56.5861L61.5022 67.3H58.0439L57.1401 58.0896C57.085 57.5319 56.7323 57.0489 56.2181 56.8273L45.9844 50.3329L55.5742 46.4023Z" fill="#38627C"/>
<path d="M45.9821 50.3329L45.4295 60.4876C45.3932 61.3299 45.5113 61.8992 45.1818 62.5257L38.6562 76.2568H42.3246L52.136 63.2217C52.7096 62.5539 52.7763 61.6472 52.9696 60.8128L55.5711 46.4023L45.9821 50.3329Z" fill="#4F7693"/>
<path d="M54.8708 23.2094L56.4801 26.3513C57.2362 27.8273 56.6524 29.6379 55.1757 30.394L53.9321 31.0307C52.4554 31.7868 50.6455 31.203 49.8894 29.7263L48.2801 26.5845C47.5239 25.1077 48.1077 23.2978 49.5844 22.5417L50.828 21.9051C52.304 21.1489 54.1139 21.7327 54.8708 23.2094Z" fill="#FECBAA"/>
</g>
<defs>
<clipPath id="clip0">
<rect width="94.9294" height="94.9294" fill="white" transform="translate(0.742188 0.804688)"/>
</clipPath>
</defs>
</svg>
