<svg width="71" height="76" viewBox="0 0 71 76" fill="none" xmlns="http://www.w3.org/2000/svg">
<path d="M11.5026 68.1782L15.8651 60.2852L21.5625 62.9419L17.6166 73.6066C16.7075 75.5564 14.3763 76.4185 12.4104 75.5016C10.4495 74.5872 9.60103 72.2563 10.5155 70.2954L11.5026 68.1782Z" fill="#BFBFBF"/>
<path d="M53.8573 60.4961L58.6683 68.18L59.6555 70.2971C60.5699 72.258 59.7214 74.5889 57.7605 75.5033C55.822 76.4078 53.4767 75.5866 52.5543 73.6083L48.9694 62.7753L53.8573 60.4961Z" fill="#BFBFBF"/>
<path d="M58.668 68.1776C56.8876 70.2552 54.8376 72.0946 52.5719 73.6419C52.5662 73.6299 52.5598 73.6182 52.554 73.606L47.7645 63.3347L54.8656 60.0234L58.668 68.1776Z" fill="#ACACAC"/>
<path d="M11.5067 68.1777L15.309 60.0234L22.4102 63.3347L17.6205 73.606C17.6149 73.6183 17.6083 73.6299 17.6026 73.6419C15.337 72.0947 13.2871 70.2553 11.5067 68.1777Z" fill="#ACACAC"/>
<path d="M57.0699 19.0448L58.3961 18.2148L60.9531 20.7717L60.1288 22.1042L52.9885 29.2444L49.9295 26.1852L57.0699 19.0448Z" fill="#ACACAC"/>
<path d="M65.4922 16.7422L62.4335 13.6835L57.0731 19.0439L60.1318 22.1025L65.4922 16.7422Z" fill="#9C9C9C"/>
<path d="M67.9539 11.5189C70.9594 14.687 70.9111 19.6909 67.8047 22.7974L66.4845 24.1175C66.1225 24.4795 65.5356 24.4795 65.1734 24.1175L55.3552 14.2992C54.9932 13.9372 54.9932 13.3501 55.3552 12.9881L56.6754 11.6679C59.782 8.56145 64.7858 8.5133 67.9539 11.5189Z" fill="#F16051"/>
<path d="M8.88061 20.242L11.3687 17.7539L13.3222 19.2622L20.2461 26.186L17.187 29.2452L10.263 22.3213L8.88061 20.242Z" fill="#ACACAC"/>
<path d="M32.0342 10.3984V3.83594H38.1404V10.3984H38.332V25.9308H31.8426V10.3984H32.0342Z" fill="#ACACAC"/>
<path d="M38.332 4.70312H31.8426V10.4001H38.332V4.70312Z" fill="#9C9C9C"/>
<path d="M25.8614 3.90131C25.8614 1.74676 27.6082 0 29.7627 0H40.8409C42.9956 0 44.7422 1.74676 44.7422 3.90131C44.7422 6.05601 42.9954 7.80262 40.8409 7.80262H29.7627C27.6082 7.80262 25.8614 6.05601 25.8614 3.90131Z" fill="#F16051"/>
<path d="M13.3281 19.2656L7.75143 13.6889L4.69274 16.7476L10.2694 22.3243L13.3281 19.2656Z" fill="#9C9C9C"/>
<path d="M29.3291 0H33.6562C31.5015 0 29.7549 1.74676 29.7549 3.90131C29.7549 6.05601 31.5017 7.80262 33.6562 7.80262H29.3291C27.1744 7.80262 25.4278 6.05601 25.4278 3.90131C25.4278 1.74676 27.1744 0 29.3291 0Z" fill="#F16051"/>
<path d="M2.52437 11.2181C5.69248 8.21251 10.6964 8.26067 13.8029 11.3671L15.123 12.6873C15.485 13.0493 15.485 13.6364 15.123 13.9984L5.30469 23.8167C4.94269 24.1787 4.35574 24.1787 3.99374 23.8167L2.67359 22.4966C-0.433026 19.3901 -0.481188 14.3862 2.52437 11.2181Z" fill="#F16051"/>
<path d="M2.3677 11.3682C2.89789 10.838 3.4841 10.3991 4.10631 10.0469C2.36088 13.1307 2.79994 17.116 5.42764 19.7437L6.74778 21.0638C7.10979 21.4259 7.69644 21.4259 8.05859 21.0641L4.9991 24.1236C4.63709 24.4856 4.05015 24.4856 3.68799 24.1236L2.36785 22.8035C-0.79004 19.6458 -0.790041 14.5259 2.3677 11.3682Z" fill="#F16051"/>
<path d="M56.3685 11.3644C59.5263 8.20666 64.6461 8.20666 67.8038 11.3644C68.3339 11.8944 68.7729 12.4808 69.125 13.103C66.0412 11.3576 62.0559 11.7966 59.4283 14.4242L58.1082 15.7443C57.7462 16.1063 57.7462 16.6934 58.1082 17.0554L65.1729 24.1201C65.1727 24.12 65.1727 24.12 65.1726 24.12L55.0484 13.9957C54.6864 13.6336 54.6864 13.0466 55.0484 12.6845L56.3685 11.3644Z" fill="#F16051"/>
<path d="M35.0856 74.7078C17.9408 74.7078 4.0422 60.8092 4.0422 43.6644C4.0422 26.5197 17.9408 12.6211 35.0856 12.6211C52.2303 12.6211 66.1289 26.5197 66.1289 43.6644C66.1289 60.8092 52.2303 74.7078 35.0856 74.7078Z" fill="#F16051"/>
<path d="M35.0873 12.6211C35.8039 12.6211 36.5143 12.6476 37.2188 12.6953C21.0685 13.7907 8.30684 27.2362 8.30684 43.6644C8.30684 60.0927 21.0683 73.5381 37.2188 74.6336C36.5143 74.6813 35.8039 74.7078 35.0873 74.7078C17.9426 74.7078 4.04396 60.8093 4.04396 43.6644C4.04396 26.5196 17.9426 12.6211 35.0873 12.6211Z" fill="#F16051"/>
<path d="M35.0872 69.2983C20.9291 69.2983 9.45169 57.8209 9.45169 43.6628C9.45169 29.5047 20.9291 18.0273 35.0872 18.0273C49.2453 18.0273 60.7227 29.5047 60.7227 43.6628C60.7227 57.8209 49.2453 69.2983 35.0872 69.2983Z" fill="#E8EDF2"/>
<path d="M35.0849 18.0273C35.8875 18.0273 36.681 18.0663 37.4648 18.1389C24.4412 19.3436 14.2093 30.3299 14.2093 43.663C14.2093 56.9959 24.4411 67.9822 37.4648 69.187C36.681 69.2595 35.8875 69.2985 35.0849 69.2985C20.9495 69.2985 9.44942 57.7984 9.44942 43.663C9.44942 29.5274 20.9495 18.0273 35.0849 18.0273Z" fill="#D9E7EC"/>
<path d="M34.9723 42.9512C35.6046 42.9512 36.1172 42.4386 36.1172 41.8063V29.7933C36.1172 29.161 35.6046 28.6484 34.9723 28.6484C34.3401 28.6484 33.8275 29.161 33.8275 29.7933V41.8063C33.8273 42.4386 34.3401 42.9512 34.9723 42.9512Z" fill="#838383"/>
<path d="M25.8775 44.8053H34.1052C34.7374 44.8053 35.25 44.2928 35.25 43.6605C35.25 43.0282 34.7374 42.5156 34.1052 42.5156H25.8775C25.2453 42.5156 24.7327 43.0282 24.7327 43.6605C24.7327 44.2928 25.2453 44.8053 25.8775 44.8053Z" fill="#9C9C9C"/>
<path d="M34.9719 47.7555C32.7105 47.7555 30.8773 45.9223 30.8773 43.6609C30.8773 41.3996 32.7105 39.5664 34.9719 39.5664C37.2332 39.5664 39.0664 41.3996 39.0664 43.6609C39.0664 45.9223 37.2332 47.7555 34.9719 47.7555Z" fill="#FBC56D"/>
<path d="M60.6958 44.8092H54.7756C54.1433 44.8092 53.6307 44.2967 53.6307 43.6644C53.6307 43.0321 54.1433 42.5195 54.7756 42.5195H60.6958C60.7126 42.8993 60.7227 43.2807 60.7227 43.6644C60.7227 44.0482 60.7126 44.4296 60.6958 44.8092Z" fill="#ACACAC"/>
<path d="M35.0856 62.207C35.7179 62.207 36.2305 62.7196 36.2305 63.3519V69.2722C35.8508 69.2891 35.4693 69.2991 35.0856 69.2991C34.7018 69.2991 34.3204 69.2891 33.9408 69.2722V63.3519C33.9406 62.7196 34.4533 62.207 35.0856 62.207Z" fill="#ACACAC"/>
<path d="M35.0856 18.0273C35.4694 18.0273 35.8508 18.0374 36.2305 18.0542V23.9746C36.2305 24.6069 35.7179 25.1194 35.0856 25.1194C34.4533 25.1194 33.9408 24.6069 33.9408 23.9746V18.0542C34.3204 18.0374 34.7018 18.0273 35.0856 18.0273Z" fill="#ACACAC"/>
<path d="M34.9707 39.5664C35.67 39.5664 36.3349 39.7528 36.918 40.0772C35.6506 40.7824 34.7707 42.1408 34.7707 43.6608C34.7707 45.181 35.6504 46.5392 36.918 47.2444C36.3349 47.5688 35.67 47.7552 34.9707 47.7552C32.7513 47.7552 30.8762 45.8801 30.8762 43.6607C30.8762 41.4413 32.7513 39.5664 34.9707 39.5664Z" fill="#E9B665"/>
<path d="M9.47784 42.5195H15.3981C16.0304 42.5195 16.543 43.0322 16.543 43.6644C16.543 44.2968 16.0304 44.8092 15.3981 44.8092H9.47784C9.46109 44.4296 9.45102 44.0482 9.45102 43.6644C9.45102 43.2807 9.46109 42.8993 9.47784 42.5195Z" fill="#ACACAC"/>
<path d="M9.45959 43.0837C9.46418 42.8952 9.4707 42.7073 9.479 42.5197V42.5195H14.2383C14.2215 42.8992 14.2121 43.2807 14.2121 43.6645C14.2121 44.0483 14.2215 44.4297 14.2383 44.8094H9.479C9.4707 44.6218 9.46418 44.4337 9.45959 44.2452C9.45529 44.0529 9.45233 43.8601 9.45218 43.6668C9.45218 43.666 9.45218 43.6653 9.45218 43.6645C9.45218 43.4703 9.45514 43.2769 9.45959 43.0837Z" fill="#9C9C9C"/>
<path d="M35.0867 70.4435C49.8534 70.4435 61.8672 58.4298 61.8672 43.6631C61.8672 28.8965 49.8536 16.8828 35.0867 16.8828C20.3199 16.8828 8.30624 28.8963 8.30624 43.6631C8.30624 58.43 20.3199 70.4435 35.0867 70.4435ZM35.0867 19.1725C48.5909 19.1725 59.5773 30.159 59.5773 43.6631C59.5773 57.1672 48.5909 68.1536 35.0867 68.1536C21.5825 68.1536 10.5961 57.1672 10.5961 43.6631C10.5961 30.159 21.5825 19.1725 35.0867 19.1725Z" fill="#F58A97"/>
</svg>
