<svg width="95" height="94" viewBox="0 0 95 94" fill="none" xmlns="http://www.w3.org/2000/svg">
<path d="M94.0708 66.223C94.0708 75.0983 92.6236 82.3015 90.8548 82.3015C80.063 80.577 69.1691 79.5672 58.2442 79.2787L54.2564 77.3815C56.4785 73.4358 55.6483 68.4747 52.2624 65.4673C52.2142 60.1293 54.7066 55.563 53.6935 53.2959C66.1403 53.1414 78.5597 52.0882 90.8548 50.1445C92.6236 50.1445 94.0708 57.3477 94.0708 66.223Z" fill="#F8E8AB"/>
<path d="M24.9304 27.7307L1.88753 19.4985C1.25158 19.2677 0.828125 18.6636 0.828125 17.9871C0.828125 17.3106 1.25158 16.7065 1.88753 16.4757L46.8798 0.397236C47.244 0.26863 47.6412 0.26863 48.0054 0.397236L92.9976 16.4757C93.6336 16.7065 94.057 17.3106 94.057 17.9871C94.057 18.6636 93.6336 19.2677 92.9976 19.4985L82.7063 23.1804L78.2521 24.7722L69.9548 27.7307H24.9304Z" fill="#393F4B"/>
<path d="M4.24856 82.2539L4.02344 82.3021C4.10116 82.3033 4.17814 82.2868 4.24856 82.2539Z" fill="#F8E8AB"/>
<path d="M4.2164 50.1767C4.15155 50.1694 4.08713 50.1587 4.02344 50.1445C4.08883 50.1474 4.15363 50.1582 4.2164 50.1767Z" fill="#F8E8AB"/>
<path d="M4.23047 50.1758C15.8044 51.9995 27.4901 53.0256 39.2048 53.2468C40.2661 55.5942 44.2218 60.5303 44.2218 66.2221C44.2218 66.608 44.2218 66.9778 44.2057 67.3476C42.2197 70.3623 42.0832 74.2335 43.8519 77.3806L39.8801 79.1814C27.9461 79.3899 16.0403 80.416 4.24655 82.2524L4.23047 50.1758Z" fill="#F8E8AB"/>
<path d="M40.9958 67.3469C41.0119 66.9771 41.0119 66.6073 41.0119 66.2214C41.19 61.8236 40.58 57.4293 39.2109 53.2461C41.8481 53.3265 44.5978 53.3586 47.444 53.3586C49.5826 53.3586 51.6731 53.3426 53.6992 53.2943C54.9973 57.2165 55.596 61.3363 55.468 65.4657L40.9958 67.3469Z" fill="#BA3A23"/>
<path d="M49.049 82.3028L44.7717 92.5448C44.5339 93.1521 43.9527 93.5556 43.3005 93.5662C42.6483 93.5768 42.0543 93.1924 41.7969 92.5931L40.623 89.8919L37.9216 91.0495C37.3274 91.31 36.6346 91.1851 36.1688 90.7335C35.703 90.2819 35.5569 89.5934 35.799 88.9915L39.8834 79.1836L40.6391 77.3828L49.049 82.3028Z" fill="#BA3A23"/>
<path d="M57.4607 77.3828L58.2486 79.2801L62.3008 88.9915C62.543 89.5934 62.3968 90.2819 61.931 90.7335C61.4652 91.1851 60.7724 91.31 60.1782 91.0495L57.4768 89.8919L56.3029 92.5931C56.0455 93.1924 55.4515 93.5768 54.7993 93.5662C54.1471 93.5556 53.5659 93.1521 53.3281 92.5448L49.0508 82.3028L57.4607 77.3828Z" fill="#BA3A23"/>
<path d="M24.9297 38.8888V21.2025C24.9297 18.5334 35.0119 16.3789 47.4419 16.3789C59.8718 16.3789 69.9541 18.5334 69.9541 21.2025V38.8888H24.9297Z" fill="#464F5E"/>
<path d="M81.2096 24.4194C80.3215 24.4194 79.6016 23.6996 79.6016 22.8116V12.2641C79.6016 11.3761 80.3215 10.6562 81.2096 10.6562C82.0977 10.6562 82.8176 11.3761 82.8176 12.2641V22.8116C82.8176 23.6996 82.0977 24.4194 81.2096 24.4194Z" fill="#EDC100"/>
<path d="M77.9922 26.0243V30.8478C77.9922 31.7358 78.7121 32.4557 79.6002 32.4557H82.8162C83.7043 32.4557 84.4242 31.7358 84.4242 30.8478V26.0243C84.4242 24.2483 82.9844 22.8086 81.2082 22.8086C79.4321 22.8086 77.9922 24.2483 77.9922 26.0243Z" fill="#F1D24B"/>
<path d="M47.4419 43.7135C59.875 43.7135 69.9541 41.5539 69.9541 38.89C69.9541 36.226 59.875 34.0664 47.4419 34.0664C35.0087 34.0664 24.9297 36.226 24.9297 38.89C24.9297 41.5539 35.0087 43.7135 47.4419 43.7135Z" fill="#393F4B"/>
<path d="M7.24065 66.2234C7.24065 74.7129 5.92208 81.6749 4.24975 82.2537C4.17933 82.2866 4.10235 82.3031 4.02462 82.3019C2.25581 82.3019 0.808594 75.0988 0.808594 66.2234C0.808594 57.3481 2.25581 50.145 4.02462 50.145C4.0423 50.1428 4.06 50.1487 4.07286 50.161C4.10502 50.161 4.15326 50.1771 4.21758 50.1771H4.23367C5.906 50.7399 7.24065 57.7018 7.24065 66.2234Z" fill="#E2BE50"/>
<path d="M58.6946 72.6551C58.6946 77.983 54.375 82.3022 49.0465 82.3022C43.718 82.3022 39.3984 77.983 39.3984 72.6551C39.3984 67.3271 43.718 63.008 49.0465 63.008C51.4181 62.9941 53.7082 63.8722 55.4625 65.468C57.5206 67.2895 58.6976 69.9068 58.6946 72.6551Z" fill="#E04C34"/>
</svg>
