<svg width="38" height="38" viewBox="0 0 38 38" fill="none" xmlns="http://www.w3.org/2000/svg">
<path d="M34.5332 0.234375H3.24237C1.51485 0.234375 0.113281 1.81114 0.113281 3.7546V27.2227C0.113281 29.1662 1.51485 30.743 3.24237 30.743H15.7587L14.7157 34.2632H10.0221C9.15503 34.2632 8.45751 35.0479 8.45751 36.0233C8.45751 36.9987 9.15503 37.7834 10.0221 37.7834H27.7535C28.6206 37.7834 29.3181 36.9987 29.3181 36.0233C29.3181 35.0479 28.6206 34.2632 27.7535 34.2632H23.0599L22.0169 30.743H34.5332C36.2607 30.743 37.6623 29.1662 37.6623 27.2227V3.7546C37.6623 1.81114 36.2607 0.234375 34.5332 0.234375ZM33.4902 26.0493H4.28539V4.928H33.4902V26.0493Z" fill="#F16051"/>
</svg>
