<svg width="96" height="96" viewBox="0 0 96 96" fill="none" xmlns="http://www.w3.org/2000/svg">
<path d="M37.5701 67.7246H58.6836V65.2053C58.6836 58.9499 54.7323 53.8789 49.8582 53.8789H46.3959C41.5217 53.8789 37.5705 58.9499 37.5705 65.2053V67.7246H37.5701Z" fill="#F4EFED"/>
<path d="M4.74722 78.5428H91.5021C93.3434 78.5428 94.8359 76.6274 94.8359 74.2642V5.71217C94.8359 3.34904 93.3434 1.43359 91.5021 1.43359H4.74722C2.90589 1.43359 1.41339 3.34904 1.41339 5.71217V74.2642C1.41339 76.6274 2.90589 78.5428 4.74722 78.5428Z" fill="#F4EFED"/>
<path d="M4.74859 1.43359H8.51562C6.6743 1.43359 5.18179 3.34904 5.18179 5.71217V74.2642C5.18179 76.6274 6.6743 78.5428 8.51562 78.5428H4.74859C2.90726 78.5428 1.41476 76.6274 1.41476 74.2642V5.71217C1.41476 3.34904 2.90726 1.43359 4.74859 1.43359Z" fill="#D6D1CF"/>
<path d="M91.5021 78.5428H87.7351C89.5764 78.5428 91.0689 76.6274 91.0689 74.2642V5.71217C91.0689 3.34904 89.5764 1.43359 87.7351 1.43359H91.5021C93.3434 1.43359 94.8359 3.34904 94.8359 5.71217V74.2642C94.8359 76.6274 93.3434 78.5428 91.5021 78.5428Z" fill="white"/>
<path d="M17.6501 94.4313H78.6016V88.7005C78.6016 86.3373 77.1091 84.4219 75.2677 84.4219H20.984C19.1426 84.4219 17.6501 86.3373 17.6501 88.7005V94.4313Z" fill="#526FAA"/>
<path d="M20.983 84.4219H24.75C22.9087 84.4219 21.4162 86.3373 21.4162 88.7005V94.4318H17.6491V88.7005C17.6491 86.3373 19.1416 84.4219 20.983 84.4219Z" fill="#34518C"/>
<path d="M75.2677 84.4219H71.5007C73.342 84.4219 74.8345 86.3373 74.8345 88.7005V94.4318H78.6016V88.7005C78.6016 86.3373 77.1091 84.4219 75.2677 84.4219Z" fill="#708DC8"/>
<path d="M66.0156 78.543H30.2314V84.4199H66.0156V78.543Z" fill="#34518C"/>
<path d="M91.4458 19.4228C91.8617 19.4228 92.1992 18.9896 92.1992 18.4559V12.6544C92.1992 12.1202 91.8617 11.6875 91.4458 11.6875C91.0299 11.6875 90.6924 12.1202 90.6924 12.6544V18.4559C90.6924 18.9896 91.0299 19.4228 91.4458 19.4228Z" fill="#690589"/>
<path d="M17.6506 95.3969H78.6021C79.0179 95.3969 79.3555 94.9637 79.3555 94.43V88.6986C79.3555 85.8061 77.5221 83.4531 75.2679 83.4531H20.9841C18.7303 83.4531 16.8965 85.8061 16.8965 88.6986V94.43C16.8972 94.9642 17.2344 95.3969 17.6506 95.3969ZM77.8487 93.4631H18.4037V88.6986C18.4037 86.8726 19.5613 85.3869 20.9845 85.3869H75.2682C76.691 85.3869 77.849 86.8726 77.849 88.6986V93.4631H77.8487Z" fill="#690589"/>
<path d="M30.2315 85.3883H66.0161C66.432 85.3883 66.7695 84.9552 66.7695 84.4214V78.545C66.7695 78.0108 66.432 77.5781 66.0161 77.5781H30.2315C29.8156 77.5781 29.4781 78.0108 29.4781 78.545V84.4214C29.4781 84.9552 29.8153 85.3883 30.2315 85.3883ZM65.2627 83.4545H30.9849V79.5119H65.2627V83.4545Z" fill="#690589"/>
<path d="M4.74772 79.5118H91.5026C93.756 79.5118 95.5898 77.1588 95.5898 74.2663V5.71424C95.5898 2.82173 93.7564 0.46875 91.5026 0.46875H4.74772C2.49428 0.46875 0.660477 2.82173 0.660477 5.71424V74.2663C0.660477 77.1588 2.4939 79.5118 4.74772 79.5118ZM91.5026 2.40257C92.9254 2.40257 94.083 3.88823 94.083 5.71424V74.2663C94.083 76.0923 92.9258 77.5779 91.5026 77.5779H4.74772C3.32491 77.5779 2.1673 76.0923 2.1673 74.2663V5.71424C2.1673 3.88823 3.32453 2.40257 4.74772 2.40257H91.5026Z" fill="#690589"/>
<path d="M13.1322 71.1658H74.6976C75.4382 71.1658 76.0391 70.3952 76.0391 69.4442C76.0391 68.4933 75.4386 67.7227 74.6976 67.7227H13.1318C12.3908 67.7227 11.7903 68.4933 11.7903 69.4442C11.7907 70.3952 12.3912 71.1658 13.1322 71.1658Z" fill="#F4EFED"/>
<path d="M13.1323 72.1348H74.6981C75.8531 72.1348 76.793 70.9286 76.793 69.4463C76.793 67.964 75.8535 66.7578 74.6981 66.7578H13.1323C11.9773 66.7578 11.0374 67.964 11.0374 69.4463C11.0378 70.9286 11.9773 72.1348 13.1323 72.1348ZM74.6981 68.6921C75.0221 68.6921 75.2862 69.0305 75.2862 69.4468C75.2862 69.863 75.0225 70.2015 74.6981 70.2015H13.1323C12.8083 70.2015 12.5443 69.863 12.5443 69.4468C12.5443 69.031 12.8079 68.6921 13.1323 68.6921H74.6981Z" fill="#690589"/>
<path d="M84.4609 69.445V65.1602L81.5694 67.3028L78.6778 69.445L81.5694 71.5877L84.4609 73.7304V69.445Z" fill="#FF4397"/>
<path d="M84.4614 74.6953C84.5918 74.6953 84.7214 74.6523 84.8381 74.5658C85.0713 74.3932 85.2148 74.0736 85.2148 73.7284V65.1582C85.2148 64.813 85.0713 64.4934 84.8381 64.3209C84.605 64.1483 84.3179 64.1483 84.0847 64.3209L78.3016 68.6057C78.0684 68.7783 77.9249 69.0979 77.9249 69.4431C77.9249 69.7882 78.0684 70.1073 78.3016 70.2804L84.0847 74.5658C84.2015 74.6523 84.3311 74.6953 84.4614 74.6953ZM83.708 66.8329V72.0532L80.1851 69.4431L83.708 66.8329Z" fill="#690589"/>
<path d="M37.5674 68.6897H58.6802C59.0961 68.6897 59.4336 68.2565 59.4336 67.7227V65.2035C59.4336 58.4249 55.1365 52.9102 49.8548 52.9102H46.3925C41.1111 52.9102 36.8137 58.4249 36.8137 65.2035V67.7227C36.814 68.2565 37.1512 68.6897 37.5674 68.6897ZM57.9268 66.7558H38.3205V65.2035C38.3205 59.4914 41.9414 54.844 46.3925 54.844H49.8548C54.3055 54.844 57.9268 59.4914 57.9268 65.2035V66.7558Z" fill="#690589"/>
<path d="M48.1268 57.7876C49.4268 57.7876 50.4805 56.4354 50.4805 54.767V51.4297H45.7732V54.767C45.7732 56.4354 46.8268 57.7876 48.1268 57.7876Z" fill="#FF9F70"/>
<path d="M48.1273 58.7566C49.8406 58.7566 51.2344 56.9678 51.2344 54.769V51.4318C51.2344 50.898 50.8968 50.4648 50.481 50.4648H45.7737C45.3578 50.4648 45.0203 50.898 45.0203 51.4318V54.769C45.0203 56.9678 46.4141 58.7566 48.1273 58.7566ZM49.7276 52.3987V54.769C49.7276 55.9013 49.0099 56.8228 48.1273 56.8228C47.2447 56.8228 46.5271 55.9013 46.5271 54.769V52.3987H49.7276Z" fill="#690589"/>
<path d="M54.212 40.0938H54.6471C55.7716 40.0938 56.6836 41.2637 56.6836 42.7073C56.6836 44.1504 55.772 45.3209 54.6471 45.3209H54.212V40.0938Z" fill="#FF9F70"/>
<path d="M41.5923 40.0938H42.0273V45.3204H41.5923C40.4674 45.3204 39.5558 44.1504 39.5558 42.7068C39.5558 41.2637 40.4674 40.0938 41.5923 40.0938Z" fill="#FF9F70"/>
<path d="M48.1213 53.3789C51.4868 53.3789 54.2148 49.8323 54.2148 45.457V39.9727C54.2148 35.5974 51.4868 32.0508 48.1213 32.0508C44.7558 32.0508 42.0277 35.5974 42.0277 39.9727V45.457C42.0277 49.8323 44.7558 53.3789 48.1213 53.3789Z" fill="#FF9F70"/>
<path d="M48.1179 54.344C51.8932 54.344 54.9648 50.3564 54.9648 45.4552V39.9708C54.9648 35.0696 51.8936 31.082 48.1179 31.082C44.3422 31.082 41.2705 35.0696 41.2705 39.9708V45.4552C41.2709 50.3564 44.3425 54.344 48.1179 54.344ZM48.1179 33.0159C51.0622 33.0159 53.458 36.1361 53.458 39.9708V45.4552C53.458 49.2904 51.0626 52.4101 48.1179 52.4101C45.1732 52.4101 42.7773 49.2899 42.7773 45.4552V39.9708C42.7777 36.1361 45.1732 33.0159 48.1179 33.0159Z" fill="#690589"/>
<path d="M54.2129 46.2859H54.6476C56.1861 46.2859 57.4375 44.6799 57.4375 42.7055C57.4375 40.731 56.1861 39.125 54.6476 39.125H54.2129C53.797 39.125 53.4595 39.5577 53.4595 40.0919V45.319C53.4595 45.8528 53.797 46.2859 54.2129 46.2859ZM54.9663 41.1106C55.5205 41.2928 55.9311 41.9387 55.9311 42.7055C55.9311 43.4722 55.5205 44.1181 54.9663 44.3004V41.1106Z" fill="#690589"/>
<path d="M41.5892 46.2859H42.0239C42.4398 46.2859 42.7773 45.8528 42.7773 45.319V40.0919C42.7773 39.5577 42.4398 39.125 42.0239 39.125H41.5892C40.0508 39.125 38.7993 40.731 38.7993 42.7055C38.7993 44.6794 40.0508 46.2859 41.5892 46.2859ZM41.2709 41.1106V44.3009C40.7168 44.1186 40.3062 43.4727 40.3062 42.706C40.3062 41.9387 40.7168 41.2928 41.2709 41.1106Z" fill="#690589"/>
<path d="M41.0187 10.3284C41.3272 10.3284 41.629 10.3642 41.9232 10.4285C43.1396 7.64184 45.4616 5.75781 48.1271 5.75781C50.7927 5.75781 53.1147 7.64232 54.3311 10.4285C54.6253 10.3637 54.927 10.3284 55.2352 10.3284C58.1776 10.3284 60.5625 13.3896 60.5625 17.1654C60.5625 20.9412 58.1772 24.0025 55.2352 24.0025V38.1401H41.0187V24.0029C38.0763 24.0029 35.6914 20.9417 35.6914 17.1659C35.6914 13.3901 38.0767 10.3284 41.0187 10.3284Z" fill="#F4EFED"/>
<path d="M41.0149 39.1067H55.2314C55.6473 39.1067 55.9848 38.6735 55.9848 38.1398V24.909C58.9837 24.4314 61.3125 21.1405 61.3125 17.1641C61.3125 12.8608 58.5848 9.36013 55.2314 9.36013C55.0615 9.36013 54.8901 9.3698 54.7183 9.38866C53.274 6.53579 50.7923 4.78906 48.1233 4.78906C45.4544 4.78906 42.9727 6.53579 41.5284 9.38866C41.3566 9.3698 41.1848 9.36013 41.0149 9.36013C37.6623 9.36013 34.9342 12.8608 34.9342 17.1641C34.9342 21.14 37.2626 24.4309 40.2615 24.909V38.1393C40.2615 38.6735 40.5987 39.1067 41.0149 39.1067ZM54.478 37.1728H41.7684V24.0021C41.7684 23.4683 41.4312 23.0352 41.0149 23.0352C38.4929 23.0352 36.441 20.4018 36.441 17.1646C36.441 13.9273 38.4925 11.2944 41.0149 11.2944C41.2707 11.2944 41.5322 11.3234 41.7925 11.3805C42.1066 11.4491 42.4208 11.2577 42.5771 10.8999C43.7016 8.32361 45.827 6.72337 48.1237 6.72337C50.4205 6.72337 52.5455 8.32409 53.6703 10.8999C53.8266 11.2572 54.1412 11.4491 54.455 11.3805C54.7149 11.3234 54.9767 11.2944 55.2321 11.2944C57.7542 11.2944 59.8064 13.9278 59.8064 17.1646C59.8064 20.4013 57.7545 23.0352 55.2321 23.0352C54.8162 23.0352 54.4787 23.4683 54.4787 24.0021V37.1728H54.478Z" fill="#690589"/>
<path d="M41.0184 34.5823H55.2349C55.6508 34.5823 55.9883 34.1491 55.9883 33.6153C55.9883 33.0816 55.6508 32.6484 55.2349 32.6484H41.0184C40.6026 32.6484 40.265 33.0816 40.265 33.6153C40.265 34.1491 40.6022 34.5823 41.0184 34.5823Z" fill="#690589"/>
</svg>
