<svg width="96" height="96" viewBox="0 0 96 96" fill="none" xmlns="http://www.w3.org/2000/svg">
<path d="M65.558 88.8515L47.5563 92.1249L29.5547 88.8515L34.4642 79.0312L47.5563 75.7578L60.6484 79.0312L65.558 88.8515Z" fill="#3F5C6C"/>
<path d="M6.6464 72.4839H0.100346V4.03677C0.026359 2.15025 1.4877 0.557203 3.37337 0.46875H91.7451C93.6308 0.557203 95.0921 2.15025 95.0181 4.03677V72.4839H6.6464Z" fill="#2FA8CC"/>
<path d="M9.91943 69.2109V79.0312H3.37337C1.4877 78.9427 0.026359 77.3497 0.100346 75.4632V69.2109H9.91943Z" fill="#547580"/>
<path d="M95.0179 69.2109V75.4632C95.0919 77.3497 93.6305 78.9427 91.7449 79.0312H19.7383V69.2109H95.0179Z" fill="#547580"/>
<path d="M75.3797 92.125C75.3744 93.9306 73.9121 95.393 72.1067 95.3984H23.0113C21.2092 95.385 19.7516 93.9273 19.7383 92.125C19.7437 90.3194 21.2059 88.857 23.0113 88.8516H72.1067C73.9088 88.8649 75.3664 90.3227 75.3797 92.125Z" fill="#547580"/>
<path d="M43.5234 38.1641L48.1538 33.5331L71.2906 56.6727L66.6603 61.3036L43.5234 38.1641Z" fill="#F0C419"/>
<path d="M48.1523 33.5352L52.7827 28.9042L75.9195 52.0438L71.2892 56.6747L48.1523 33.5352Z" fill="#F3D55B"/>
<path d="M85.1987 70.5675C82.6387 73.1204 78.496 73.1204 75.936 70.5675L71.3047 65.9356L80.5674 56.6719L85.1987 61.3038C87.7513 63.864 87.7513 68.0072 85.1987 70.5675Z" fill="#FF5364"/>
<path d="M80.5659 56.6749L71.3032 65.9386L66.6719 61.3067L71.3032 56.6749L75.9345 52.043L80.5659 56.6749Z" fill="#95A5A5"/>
<path d="M79.4062 68.7304C80.3102 68.7304 81.0429 67.9977 81.0429 67.0937C81.0429 66.1898 80.3102 65.457 79.4062 65.457C78.5023 65.457 77.7695 66.1898 77.7695 67.0937C77.7695 67.9977 78.5023 68.7304 79.4062 68.7304Z" fill="#FB7B76"/>
<path d="M44.3351 24.6092C43.9289 25.7929 43.2572 26.8678 42.3713 27.7517C41.4928 28.6324 40.4232 29.2989 39.2455 29.6993L36.2834 23.8399C35.9717 23.2106 36.0961 22.4526 36.5926 21.956C37.0892 21.4594 37.8472 21.335 38.4764 21.6467L44.3351 24.6092Z" fill="#464F5D"/>
<path d="M52.7925 28.8976L48.1612 33.5294L43.5299 38.1613L39.2422 29.6995C40.4199 29.2991 41.4895 28.6326 42.3679 27.7519C43.2538 26.868 43.9256 25.7931 44.3317 24.6094L52.7925 28.8976Z" fill="#F9C795"/>
<path d="M72.104 11.9258H62.285C61.3811 11.9258 60.6484 11.193 60.6484 10.2891C60.6484 9.38512 61.3811 8.65234 62.285 8.65234H72.104C73.0079 8.65234 73.7405 9.38512 73.7405 10.2891C73.7405 11.193 73.0079 11.9258 72.104 11.9258Z" fill="white"/>
<path d="M85.1982 11.9258H78.6521C77.7483 11.9258 77.0156 11.193 77.0156 10.2891C77.0156 9.38512 77.7483 8.65234 78.6521 8.65234H85.1982C86.102 8.65234 86.8347 9.38512 86.8347 10.2891C86.8347 11.193 86.102 11.9258 85.1982 11.9258Z" fill="white"/>
<path d="M85.1982 25.0195H78.6521C77.7483 25.0195 77.0156 24.2867 77.0156 23.3828C77.0156 22.4789 77.7483 21.7461 78.6521 21.7461H85.1982C86.102 21.7461 86.8347 22.4789 86.8347 23.3828C86.8347 24.2867 86.102 25.0195 85.1982 25.0195Z" fill="white"/>
<path d="M85.1972 18.4726H70.4685C69.5647 18.4726 68.832 17.7399 68.832 16.8359C68.832 15.932 69.5647 15.1992 70.4685 15.1992H85.1972C86.101 15.1992 86.8337 15.932 86.8337 16.8359C86.8337 17.7399 86.101 18.4726 85.1972 18.4726Z" fill="white"/>
<path d="M52.4673 61.0273H42.6482C41.7444 61.0273 41.0117 60.2945 41.0117 59.3906C41.0117 58.4867 41.7444 57.7539 42.6482 57.7539H52.4673C53.3711 57.7539 54.1038 58.4867 54.1038 59.3906C54.1038 60.2945 53.3711 61.0273 52.4673 61.0273Z" fill="white"/>
<path d="M36.1044 61.0273H29.5584C28.6546 61.0273 27.9219 60.2945 27.9219 59.3906C27.9219 58.4867 28.6546 57.7539 29.5584 57.7539H36.1044C37.0083 57.7539 37.741 58.4867 37.741 59.3906C37.741 60.2945 37.0083 61.0273 36.1044 61.0273Z" fill="white"/>
<path d="M36.1044 47.9336H29.5584C28.6546 47.9336 27.9219 47.2008 27.9219 46.2969C27.9219 45.3929 28.6546 44.6602 29.5584 44.6602H36.1044C37.0083 44.6602 37.741 45.3929 37.741 46.2969C37.741 47.2008 37.0083 47.9336 36.1044 47.9336Z" fill="white"/>
<path d="M44.287 54.4804H29.5584C28.6546 54.4804 27.9219 53.7477 27.9219 52.8437C27.9219 51.9398 28.6546 51.207 29.5584 51.207H44.287C45.1908 51.207 45.9235 51.9398 45.9235 52.8437C45.9235 53.7477 45.1908 54.4804 44.287 54.4804Z" fill="white"/>
<path d="M6.64459 41.1576C2.1802 49.8248 -0.0687532 59.4626 0.0985392 69.2108V4.03711C0.0245521 2.15059 1.48589 0.557543 3.37157 0.46909H91.7433C91.9579 0.465699 92.1721 0.487674 92.3815 0.534558C82.497 0.927368 46.9846 3.62794 23.0097 22.1064L6.64459 41.1576Z" fill="#67B9CC"/>
<path d="M19.7366 7.01562H9.91756C8.10992 7.01562 6.64453 8.48118 6.64453 10.289V79.0307C6.64453 80.8386 8.10992 82.3042 9.91756 82.3042H19.7366C21.5443 82.3042 23.0097 80.8386 23.0097 79.0307V10.289C23.0097 8.48118 21.5443 7.01562 19.7366 7.01562Z" fill="#F0C419"/>
<path d="M23.0107 13.5625V16.8359H16.4646C15.5608 16.8359 14.8281 16.1031 14.8281 15.1992C14.8281 14.2953 15.5608 13.5625 16.4646 13.5625H23.0107Z" fill="#F29C1F"/>
<path d="M23.0107 26.6562V29.9297H16.4646C15.5608 29.9297 14.8281 29.1969 14.8281 28.293C14.8281 27.389 15.5608 26.6562 16.4646 26.6562H23.0107Z" fill="#F29C1F"/>
<path d="M23.0117 20.1094V23.3828H19.7383C18.8343 23.3828 18.1016 22.65 18.1016 21.7461C18.1016 20.8422 18.8343 20.1094 19.7383 20.1094H23.0117Z" fill="#F29C1F"/>
<path d="M23.0107 39.75V43.0234H16.4646C15.5608 43.0234 14.8281 42.2906 14.8281 41.3867C14.8281 40.4828 15.5608 39.75 16.4646 39.75H23.0107Z" fill="#F29C1F"/>
<path d="M23.0117 33.2031V36.4765H19.7383C18.8343 36.4765 18.1016 35.7438 18.1016 34.8398C18.1016 33.9359 18.8343 33.2031 19.7383 33.2031H23.0117Z" fill="#F29C1F"/>
<path d="M23.0107 52.8438V56.1172H16.4646C15.5608 56.1172 14.8281 55.3844 14.8281 54.4805C14.8281 53.5765 15.5608 52.8438 16.4646 52.8438H23.0107Z" fill="#F29C1F"/>
<path d="M23.0117 46.2969V49.5703H19.7383C18.8343 49.5703 18.1016 48.8375 18.1016 47.9336C18.1016 47.0297 18.8343 46.2969 19.7383 46.2969H23.0117Z" fill="#F29C1F"/>
<path d="M23.0107 65.9375V69.2109H16.4646C15.5608 69.2109 14.8281 68.4781 14.8281 67.5742C14.8281 66.6703 15.5608 65.9375 16.4646 65.9375H23.0107Z" fill="#F29C1F"/>
<path d="M23.0117 59.3906V62.664H19.7383C18.8343 62.664 18.1016 61.9313 18.1016 61.0273C18.1016 60.1234 18.8343 59.3906 19.7383 59.3906H23.0117Z" fill="#F29C1F"/>
<path d="M23.0117 72.4844V75.7578H19.7383C18.8343 75.7578 18.1016 75.025 18.1016 74.1211C18.1016 73.2172 18.8343 72.4844 19.7383 72.4844H23.0117Z" fill="#F29C1F"/>
</svg>
