<svg width="50" height="51" viewBox="0 0 50 51" fill="none" xmlns="http://www.w3.org/2000/svg">
<path d="M22.8286 6.42829C23.4759 4.46146 26.2661 4.46146 26.9134 6.42829C27.427 7.98872 29.4392 8.41526 30.5343 7.19076C31.9022 5.66126 34.4297 6.75448 34.2519 8.79874L34.2324 9.02311C34.0908 10.6505 35.7678 11.8239 37.2611 11.1616C39.1302 10.3327 41.0255 12.3235 40.0569 14.1242L39.8717 14.4683C39.1095 15.8853 40.12 17.6061 41.7289 17.6307L41.9992 17.6349C44.0263 17.6659 44.884 20.2312 43.2832 21.4752L42.9157 21.7608C41.6568 22.739 41.8664 24.6998 43.3036 25.3898L43.6967 25.5786C45.5204 26.4543 45.2304 29.136 43.2616 29.6016L42.9044 29.6861C41.3478 30.0542 40.7265 31.9345 41.7573 33.1575L42.047 33.5013C43.3585 35.0573 41.9699 37.3945 39.9762 36.9868L39.8169 36.9542C38.2286 36.6295 36.8676 38.1153 37.3301 39.669L37.4181 39.9648C38.0034 41.931 35.7572 43.5165 34.1005 42.3066C32.7746 41.3382 30.8969 42.1597 30.7081 43.7907L30.6941 43.9114C30.4574 45.9565 27.7491 46.5157 26.7218 44.7316C25.9003 43.305 23.8417 43.305 23.0202 44.7316C21.9929 46.5157 19.2846 45.9565 19.0479 43.9114L19.0339 43.7907C18.8451 42.1597 16.9674 41.3382 15.6415 42.3066C13.9847 43.5165 11.7386 41.931 12.3239 39.9648L12.4119 39.669C12.8744 38.1153 11.5133 36.6295 9.92513 36.9542L9.76584 36.9868C7.77209 37.3945 6.3835 35.0573 7.69496 33.5013L7.98467 33.1575C9.01547 31.9345 8.39415 30.0542 6.83759 29.6861L6.48035 29.6016C4.51156 29.136 4.22155 26.4543 6.04528 25.5786L6.43842 25.3898C7.87559 24.6998 8.08515 22.739 6.82629 21.7608L6.45878 21.4752C4.85797 20.2312 5.71566 17.6659 7.74275 17.6349L8.01314 17.6307C9.62196 17.6061 10.6325 15.8853 9.87024 14.4683L9.68511 14.1242C8.71651 12.3235 10.6118 10.3327 12.4809 11.1616C13.9741 11.8239 15.6511 10.6505 15.5096 9.02311L15.4901 8.79874C15.3122 6.75448 17.8398 5.66126 19.2077 7.19076C20.3028 8.41526 22.315 7.98872 22.8286 6.42829Z" fill="#F16051"/>
<path d="M12.1681 29.5078V20.5394H17.9591V21.8591H13.808V24.3702H17.1648V25.6642H13.808V29.5078H12.1681ZM19.1862 29.5078V23.1531H20.6468L20.8005 24.3446C21.0312 23.9346 21.3429 23.61 21.7358 23.3709C22.1373 23.1232 22.607 22.9993 23.1451 22.9993V24.729H22.6839C22.3252 24.729 22.0049 24.7845 21.723 24.8955C21.4411 25.0065 21.2191 25.1987 21.0568 25.472C20.903 25.7454 20.8262 26.1255 20.8262 26.6123V29.5078H19.1862ZM27.2411 29.6616C26.6005 29.6616 26.0325 29.5249 25.5371 29.2516C25.0417 28.9783 24.653 28.5939 24.3712 28.0985C24.0893 27.6031 23.9484 27.0308 23.9484 26.3817C23.9484 25.724 24.085 25.1389 24.3584 24.6265C24.6402 24.114 25.0246 23.7168 25.5114 23.4349C26.0068 23.1445 26.5877 22.9993 27.2539 22.9993C27.8774 22.9993 28.4283 23.136 28.9066 23.4093C29.3849 23.6826 29.7565 24.0585 30.0213 24.5368C30.2946 25.0065 30.4312 25.5318 30.4312 26.1126C30.4312 26.2066 30.427 26.3048 30.4184 26.4073C30.4184 26.5098 30.4142 26.6166 30.4056 26.7276H25.5755C25.6097 27.223 25.7805 27.6116 26.088 27.8935C26.404 28.1754 26.7841 28.3163 27.2283 28.3163C27.5614 28.3163 27.839 28.2437 28.061 28.0985C28.2916 27.9448 28.4625 27.7483 28.5735 27.5091H30.2391C30.1195 27.9106 29.9188 28.2779 29.6369 28.611C29.3636 28.9355 29.0219 29.1918 28.6119 29.3797C28.2105 29.5676 27.7535 29.6616 27.2411 29.6616ZM27.2539 24.3318C26.8524 24.3318 26.498 24.4471 26.1905 24.6777C25.883 24.8998 25.6865 25.2414 25.6011 25.7027H28.7657C28.7401 25.2841 28.5863 24.951 28.3045 24.7033C28.0226 24.4556 27.6724 24.3318 27.2539 24.3318ZM34.8982 29.6616C34.2576 29.6616 33.6896 29.5249 33.1942 29.2516C32.6988 28.9783 32.3102 28.5939 32.0283 28.0985C31.7465 27.6031 31.6055 27.0308 31.6055 26.3817C31.6055 25.724 31.7422 25.1389 32.0155 24.6265C32.2974 24.114 32.6817 23.7168 33.1686 23.4349C33.664 23.1445 34.2448 22.9993 34.911 22.9993C35.5345 22.9993 36.0855 23.136 36.5638 23.4093C37.0421 23.6826 37.4136 24.0585 37.6784 24.5368C37.9517 25.0065 38.0884 25.5318 38.0884 26.1126C38.0884 26.2066 38.0841 26.3048 38.0756 26.4073C38.0756 26.5098 38.0713 26.6166 38.0628 26.7276H33.2327C33.2668 27.223 33.4376 27.6116 33.7451 27.8935C34.0612 28.1754 34.4413 28.3163 34.8854 28.3163C35.2185 28.3163 35.4961 28.2437 35.7182 28.0985C35.9488 27.9448 36.1196 27.7483 36.2307 27.5091H37.8962C37.7766 27.9106 37.5759 28.2779 37.294 28.611C37.0207 28.9355 36.6791 29.1918 36.2691 29.3797C35.8676 29.5676 35.4107 29.6616 34.8982 29.6616ZM34.911 24.3318C34.5096 24.3318 34.1551 24.4471 33.8476 24.6777C33.5401 24.8998 33.3437 25.2414 33.2583 25.7027H36.4228C36.3972 25.2841 36.2435 24.951 35.9616 24.7033C35.6797 24.4556 35.3295 24.3318 34.911 24.3318Z" fill="white"/>
</svg>
