<svg width="60" height="60" viewBox="0 0 60 60" fill="none" xmlns="http://www.w3.org/2000/svg">
<path d="M57 16H3C2.20435 16 1.44129 16.3161 0.87868 16.8787C0.316071 17.4413 0 18.2044 0 19V57C0 57.7957 0.316071 58.5587 0.87868 59.1213C1.44129 59.6839 2.20435 60 3 60H57C57.7957 60 58.5587 59.6839 59.1213 59.1213C59.6839 58.5587 60 57.7957 60 57V19C60 18.2044 59.6839 17.4413 59.1213 16.8787C58.5587 16.3161 57.7957 16 57 16ZM58 57C58 57.2652 57.8946 57.5196 57.7071 57.7071C57.5196 57.8946 57.2652 58 57 58H3C2.73478 58 2.48043 57.8946 2.29289 57.7071C2.10536 57.5196 2 57.2652 2 57V19C2 18.7348 2.10536 18.4804 2.29289 18.2929C2.48043 18.1054 2.73478 18 3 18H57C57.2652 18 57.5196 18.1054 57.7071 18.2929C57.8946 18.4804 58 18.7348 58 19V57Z" fill="white"/>
<path d="M53 27H51V24C51 23.7348 50.8946 23.4804 50.7071 23.2929C50.5196 23.1054 50.2652 23 50 23H44C43.7348 23 43.4804 23.1054 43.2929 23.2929C43.1054 23.4804 43 23.7348 43 24V27H41C40.2044 27 39.4413 27.3161 38.8787 27.8787C38.3161 28.4413 38 29.2044 38 30V50C38 50.7956 38.3161 51.5587 38.8787 52.1213C39.4413 52.6839 40.2044 53 41 53H53C53.7956 53 54.5587 52.6839 55.1213 52.1213C55.6839 51.5587 56 50.7956 56 50V30C56 29.2044 55.6839 28.4413 55.1213 27.8787C54.5587 27.3161 53.7956 27 53 27ZM45 25H49V27H45V25ZM54 50C54 50.2652 53.8946 50.5196 53.7071 50.7071C53.5196 50.8946 53.2652 51 53 51H41C40.7348 51 40.4804 50.8946 40.2929 50.7071C40.1054 50.5196 40 50.2652 40 50V30C40 29.7348 40.1054 29.4804 40.2929 29.2929C40.4804 29.1054 40.7348 29 41 29H53C53.2652 29 53.5196 29.1054 53.7071 29.2929C53.8946 29.4804 54 29.7348 54 30V50Z" fill="white"/>
<path d="M52 44H42C41.7348 44 41.4804 44.1054 41.2929 44.2929C41.1054 44.4804 41 44.7348 41 45V49C41 49.2652 41.1054 49.5196 41.2929 49.7071C41.4804 49.8946 41.7348 50 42 50H52C52.2652 50 52.5196 49.8946 52.7071 49.7071C52.8946 49.5196 53 49.2652 53 49V45C53 44.7348 52.8946 44.4804 52.7071 44.2929C52.5196 44.1054 52.2652 44 52 44ZM51 48H43V46H51V48Z" fill="white"/>
<path d="M52 37H42C41.7348 37 41.4804 37.1054 41.2929 37.2929C41.1054 37.4804 41 37.7348 41 38V42C41 42.2652 41.1054 42.5196 41.2929 42.7071C41.4804 42.8946 41.7348 43 42 43H52C52.2652 43 52.5196 42.8946 52.7071 42.7071C52.8946 42.5196 53 42.2652 53 42V38C53 37.7348 52.8946 37.4804 52.7071 37.2929C52.5196 37.1054 52.2652 37 52 37ZM51 41H43V39H51V41Z" fill="white"/>
<path d="M52 30H42C41.7348 30 41.4804 30.1054 41.2929 30.2929C41.1054 30.4804 41 30.7348 41 31V35C41 35.2652 41.1054 35.5196 41.2929 35.7071C41.4804 35.8946 41.7348 36 42 36H52C52.2652 36 52.5196 35.8946 52.7071 35.7071C52.8946 35.5196 53 35.2652 53 35V31C53 30.7348 52.8946 30.4804 52.7071 30.2929C52.5196 30.1054 52.2652 30 52 30ZM51 34H43V32H51V34Z" fill="white"/>
<path d="M59 3H54V1C54 0.734784 53.8946 0.48043 53.7071 0.292893C53.5196 0.105357 53.2652 0 53 0H47C46.7348 0 46.4804 0.105357 46.2929 0.292893C46.1054 0.48043 46 0.734784 46 1V3H14V1C14 0.734784 13.8946 0.48043 13.7071 0.292893C13.5196 0.105357 13.2652 0 13 0H7C6.73478 0 6.48043 0.105357 6.29289 0.292893C6.10536 0.48043 6 0.734784 6 1V3H1C0.734784 3 0.48043 3.10536 0.292893 3.29289C0.105357 3.48043 0 3.73478 0 4V11C0 11.7956 0.316071 12.5587 0.87868 13.1213C1.44129 13.6839 2.20435 14 3 14H57C57.7957 14 58.5587 13.6839 59.1213 13.1213C59.6839 12.5587 60 11.7956 60 11V4C60 3.73478 59.8946 3.48043 59.7071 3.29289C59.5196 3.10536 59.2652 3 59 3ZM48 2H52V6C52 6.53043 51.7893 7.03914 51.4142 7.41421C51.0391 7.78929 50.5304 8 50 8C49.4696 8 48.9609 7.78929 48.5858 7.41421C48.2107 7.03914 48 6.53043 48 6V2ZM8 2H12V6C12 6.53043 11.7893 7.03914 11.4142 7.41421C11.0391 7.78929 10.5304 8 10 8C9.46957 8 8.96086 7.78929 8.58579 7.41421C8.21071 7.03914 8 6.53043 8 6V2ZM58 11C58 11.2652 57.8946 11.5196 57.7071 11.7071C57.5196 11.8946 57.2652 12 57 12H3C2.73478 12 2.48043 11.8946 2.29289 11.7071C2.10536 11.5196 2 11.2652 2 11V5H6V6C6 7.06087 6.42143 8.07828 7.17157 8.82843C7.92172 9.57857 8.93913 10 10 10C11.0609 10 12.0783 9.57857 12.8284 8.82843C13.5786 8.07828 14 7.06087 14 6V5H46V6C46 7.06087 46.4214 8.07828 47.1716 8.82843C47.9217 9.57857 48.9391 10 50 10C51.0609 10 52.0783 9.57857 52.8284 8.82843C53.5786 8.07828 54 7.06087 54 6V5H58V11Z" fill="white"/>
<path d="M13 22H7C6.73478 22 6.48043 22.1054 6.29289 22.2929C6.10536 22.4804 6 22.7348 6 23V29C6 29.2652 6.10536 29.5196 6.29289 29.7071C6.48043 29.8946 6.73478 30 7 30H13C13.2652 30 13.5196 29.8946 13.7071 29.7071C13.8946 29.5196 14 29.2652 14 29V23C14 22.7348 13.8946 22.4804 13.7071 22.2929C13.5196 22.1054 13.2652 22 13 22ZM12 28H8V24H12V28Z" fill="white"/>
<path d="M20 22C19.2089 22 18.4355 22.2346 17.7777 22.6741C17.1199 23.1136 16.6072 23.7384 16.3045 24.4693C16.0017 25.2002 15.9225 26.0044 16.0769 26.7804C16.2312 27.5563 16.6122 28.269 17.1716 28.8284C17.731 29.3878 18.4437 29.7688 19.2196 29.9231C19.9956 30.0775 20.7998 29.9983 21.5307 29.6955C22.2616 29.3928 22.8864 28.8801 23.3259 28.2223C23.7654 27.5645 24 26.7911 24 26C24 24.9391 23.5786 23.9217 22.8284 23.1716C22.0783 22.4214 21.0609 22 20 22ZM20 28C19.6044 28 19.2178 27.8827 18.8889 27.6629C18.56 27.4432 18.3036 27.1308 18.1522 26.7654C18.0009 26.3999 17.9613 25.9978 18.0384 25.6098C18.1156 25.2219 18.3061 24.8655 18.5858 24.5858C18.8655 24.3061 19.2219 24.1156 19.6098 24.0384C19.9978 23.9613 20.3999 24.0009 20.7654 24.1522C21.1308 24.3036 21.4432 24.56 21.6629 24.8889C21.8827 25.2178 22 25.6044 22 26C22 26.5304 21.7893 27.0391 21.4142 27.4142C21.0391 27.7893 20.5304 28 20 28Z" fill="white"/>
<path d="M33 22H27C26.7348 22 26.4804 22.1054 26.2929 22.2929C26.1054 22.4804 26 22.7348 26 23V29C26 29.2652 26.1054 29.5196 26.2929 29.7071C26.4804 29.8946 26.7348 30 27 30H33C33.2652 30 33.5196 29.8946 33.7071 29.7071C33.8946 29.5196 34 29.2652 34 29V23C34 22.7348 33.8946 22.4804 33.7071 22.2929C33.5196 22.1054 33.2652 22 33 22ZM32 28H28V24H32V28Z" fill="white"/>
<path d="M13 34H7C6.73478 34 6.48043 34.1054 6.29289 34.2929C6.10536 34.4804 6 34.7348 6 35V41C6 41.2652 6.10536 41.5196 6.29289 41.7071C6.48043 41.8946 6.73478 42 7 42H13C13.2652 42 13.5196 41.8946 13.7071 41.7071C13.8946 41.5196 14 41.2652 14 41V35C14 34.7348 13.8946 34.4804 13.7071 34.2929C13.5196 34.1054 13.2652 34 13 34ZM12 40H8V36H12V40Z" fill="white"/>
<path d="M23 34H17C16.7348 34 16.4804 34.1054 16.2929 34.2929C16.1054 34.4804 16 34.7348 16 35V41C16 41.2652 16.1054 41.5196 16.2929 41.7071C16.4804 41.8946 16.7348 42 17 42H23C23.2652 42 23.5196 41.8946 23.7071 41.7071C23.8946 41.5196 24 41.2652 24 41V35C24 34.7348 23.8946 34.4804 23.7071 34.2929C23.5196 34.1054 23.2652 34 23 34ZM22 40H18V36H22V40Z" fill="white"/>
<path d="M30 34C29.2089 34 28.4355 34.2346 27.7777 34.6741C27.1199 35.1136 26.6072 35.7384 26.3045 36.4693C26.0017 37.2002 25.9225 38.0044 26.0769 38.7804C26.2312 39.5563 26.6122 40.269 27.1716 40.8284C27.731 41.3878 28.4437 41.7688 29.2196 41.9231C29.9956 42.0775 30.7998 41.9983 31.5307 41.6955C32.2616 41.3928 32.8864 40.8801 33.3259 40.2223C33.7654 39.5645 34 38.7911 34 38C34 36.9391 33.5786 35.9217 32.8284 35.1716C32.0783 34.4214 31.0609 34 30 34ZM30 40C29.6044 40 29.2178 39.8827 28.8889 39.6629C28.56 39.4432 28.3036 39.1308 28.1522 38.7654C28.0009 38.3999 27.9613 37.9978 28.0384 37.6098C28.1156 37.2219 28.3061 36.8655 28.5858 36.5858C28.8655 36.3061 29.2219 36.1156 29.6098 36.0384C29.9978 35.9613 30.3999 36.0009 30.7654 36.1522C31.1308 36.3036 31.4432 36.56 31.6629 36.8889C31.8827 37.2178 32 37.6044 32 38C32 38.5304 31.7893 39.0391 31.4142 39.4142C31.0391 39.7893 30.5304 40 30 40Z" fill="white"/>
<path d="M13 46H7C6.73478 46 6.48043 46.1054 6.29289 46.2929C6.10536 46.4804 6 46.7348 6 47V53C6 53.2652 6.10536 53.5196 6.29289 53.7071C6.48043 53.8946 6.73478 54 7 54H13C13.2652 54 13.5196 53.8946 13.7071 53.7071C13.8946 53.5196 14 53.2652 14 53V47C14 46.7348 13.8946 46.4804 13.7071 46.2929C13.5196 46.1054 13.2652 46 13 46ZM12 52H8V48H12V52Z" fill="white"/>
<path d="M23 46H17C16.7348 46 16.4804 46.1054 16.2929 46.2929C16.1054 46.4804 16 46.7348 16 47V53C16 53.2652 16.1054 53.5196 16.2929 53.7071C16.4804 53.8946 16.7348 54 17 54H23C23.2652 54 23.5196 53.8946 23.7071 53.7071C23.8946 53.5196 24 53.2652 24 53V47C24 46.7348 23.8946 46.4804 23.7071 46.2929C23.5196 46.1054 23.2652 46 23 46ZM22 52H18V48H22V52Z" fill="white"/>
<path d="M33 46H27C26.7348 46 26.4804 46.1054 26.2929 46.2929C26.1054 46.4804 26 46.7348 26 47V53C26 53.2652 26.1054 53.5196 26.2929 53.7071C26.4804 53.8946 26.7348 54 27 54H33C33.2652 54 33.5196 53.8946 33.7071 53.7071C33.8946 53.5196 34 53.2652 34 53V47C34 46.7348 33.8946 46.4804 33.7071 46.2929C33.5196 46.1054 33.2652 46 33 46ZM32 52H28V48H32V52Z" fill="white"/>
</svg>
