<svg width="155" height="46" viewBox="0 0 155 46" fill="none" xmlns="http://www.w3.org/2000/svg">
<path d="M44.029 18.6498H38.1557V15.1887H54.1501V18.6498H48.2767V33.543H44.029V18.6498ZM68.5313 26.5421C68.5313 26.5946 68.5051 26.9617 68.4527 27.6434H57.781C57.9733 28.5174 58.4277 29.2079 59.1444 29.7148C59.8611 30.2217 60.7526 30.4752 61.8189 30.4752C62.5531 30.4752 63.1998 30.3703 63.7592 30.1605C64.3361 29.9333 64.8692 29.5837 65.3587 29.1117L67.5349 31.4716C66.2064 32.9923 64.2661 33.7527 61.714 33.7527C60.1233 33.7527 58.7162 33.4468 57.4926 32.835C56.2689 32.2057 55.325 31.3405 54.6608 30.2392C53.9965 29.138 53.6644 27.8881 53.6644 26.4897C53.6644 25.1088 53.9878 23.8677 54.6345 22.7664C55.2988 21.6477 56.199 20.7824 57.3352 20.1706C58.4889 19.5413 59.7737 19.2267 61.1896 19.2267C62.5706 19.2267 63.8204 19.5238 64.9391 20.1182C66.0579 20.7125 66.9319 21.569 67.5612 22.6877C68.2079 23.789 68.5313 25.0738 68.5313 26.5421ZM61.2158 22.3207C60.2894 22.3207 59.5115 22.5829 58.8822 23.1073C58.2529 23.6317 57.8684 24.3484 57.7285 25.2573H64.6769C64.5371 24.3658 64.1525 23.6579 63.5232 23.1335C62.8939 22.5916 62.1248 22.3207 61.2158 22.3207ZM76.5603 19.2267C78.7453 19.2267 80.4234 19.7511 81.5946 20.7999C82.7658 21.8312 83.3513 23.3957 83.3513 25.4933V33.543H79.5232V31.7862C78.754 33.0972 77.3207 33.7527 75.223 33.7527C74.1393 33.7527 73.1953 33.5692 72.3912 33.2021C71.6046 32.835 71.0016 32.3281 70.582 31.6813C70.1625 31.0346 69.9528 30.3004 69.9528 29.4788C69.9528 28.1678 70.4422 27.1365 71.4211 26.3848C72.4175 25.6332 73.947 25.2573 76.0097 25.2573H79.261C79.261 24.3658 78.99 23.6841 78.4481 23.2122C77.9063 22.7227 77.0934 22.478 76.0097 22.478C75.258 22.478 74.5151 22.6003 73.7809 22.8451C73.0642 23.0723 72.4524 23.387 71.9455 23.789L70.4772 20.931C71.2463 20.3891 72.164 19.9696 73.2303 19.6724C74.3141 19.3752 75.4241 19.2267 76.5603 19.2267ZM76.2456 30.9996C76.9448 30.9996 77.5654 30.8423 78.1073 30.5276C78.6492 30.1955 79.0337 29.7148 79.261 29.0855V27.6434H76.4554C74.7773 27.6434 73.9382 28.194 73.9382 29.2953C73.9382 29.8197 74.1393 30.2392 74.5413 30.5538C74.9608 30.851 75.5289 30.9996 76.2456 30.9996ZM94.0243 33.7527C92.521 33.7527 91.1662 33.4468 89.9601 32.835C88.7714 32.2057 87.8363 31.3405 87.1545 30.2392C86.4903 29.138 86.1582 27.8881 86.1582 26.4897C86.1582 25.0913 86.4903 23.8414 87.1545 22.7402C87.8363 21.6389 88.7714 20.7824 89.9601 20.1706C91.1662 19.5413 92.521 19.2267 94.0243 19.2267C95.5101 19.2267 96.8036 19.5413 97.9049 20.1706C99.0236 20.7824 99.8364 21.6652 100.343 22.8188L97.1707 24.5232C96.4365 23.2296 95.379 22.5829 93.998 22.5829C92.9317 22.5829 92.049 22.9325 91.3498 23.6317C90.6506 24.3309 90.301 25.2836 90.301 26.4897C90.301 27.6958 90.6506 28.6485 91.3498 29.3477C92.049 30.0469 92.9317 30.3965 93.998 30.3965C95.3965 30.3965 96.454 29.7498 97.1707 28.4562L100.343 30.1868C99.8364 31.3055 99.0236 32.1795 97.9049 32.8088C96.8036 33.4381 95.5101 33.7527 94.0243 33.7527ZM111.17 19.2267C112.918 19.2267 114.325 19.7511 115.392 20.7999C116.475 21.8487 117.017 23.4044 117.017 25.4671V33.543H112.927V26.0964C112.927 24.9777 112.682 24.1473 112.193 23.6055C111.703 23.0461 110.995 22.7664 110.069 22.7664C109.038 22.7664 108.216 23.0898 107.604 23.7366C106.992 24.3658 106.686 25.3098 106.686 26.5684V33.543H102.596V14.0875H106.686V20.9048C107.228 20.3629 107.884 19.9521 108.653 19.6724C109.422 19.3752 110.261 19.2267 111.17 19.2267ZM120.725 19.4364H124.815V33.543H120.725V19.4364ZM122.77 17.4699C122.019 17.4699 121.407 17.2514 120.935 16.8144C120.463 16.3774 120.227 15.8355 120.227 15.1887C120.227 14.542 120.463 14.0001 120.935 13.5631C121.407 13.1261 122.019 12.9076 122.77 12.9076C123.522 12.9076 124.134 13.1173 124.606 13.5368C125.078 13.9564 125.314 14.4808 125.314 15.1101C125.314 15.7918 125.078 16.3599 124.606 16.8144C124.134 17.2514 123.522 17.4699 122.77 17.4699ZM133.095 19.7511H136.714V22.8975H133.2V33.543H129.11V22.8975H126.933V19.7511H129.11V19.1218C129.11 17.5136 129.582 16.2375 130.526 15.2936C131.487 14.3497 132.833 13.8777 134.564 13.8777C135.175 13.8777 135.752 13.9476 136.294 14.0875C136.853 14.2098 137.317 14.3934 137.684 14.6381L136.609 17.601C136.137 17.2689 135.586 17.1028 134.957 17.1028C133.716 17.1028 133.095 17.7845 133.095 19.148V19.7511ZM153.009 19.4364L146.638 34.4082C145.991 36.0339 145.187 37.1789 144.225 37.8431C143.281 38.5074 142.136 38.8395 140.791 38.8395C140.056 38.8395 139.331 38.7259 138.614 38.4986C137.898 38.2714 137.312 37.9567 136.857 37.5547L138.352 34.6442C138.667 34.9239 139.025 35.1424 139.427 35.2997C139.847 35.4571 140.257 35.5357 140.659 35.5357C141.219 35.5357 141.673 35.3959 142.023 35.1162C142.372 34.854 142.687 34.4082 142.967 33.779L143.019 33.6479L136.91 19.4364H141.131L145.091 29.0068L149.076 19.4364H153.009Z" fill="#F16051"/>
<path d="M44.029 18.6498H44.8056V17.8733H44.029V18.6498ZM38.1557 18.6498H37.3791V19.4264H38.1557V18.6498ZM38.1557 15.1887V14.4122H37.3791V15.1887H38.1557ZM54.1501 15.1887H54.9266V14.4122H54.1501V15.1887ZM54.1501 18.6498V19.4264H54.9266V18.6498H54.1501ZM48.2767 18.6498V17.8733H47.5002V18.6498H48.2767ZM48.2767 33.543V34.3195H49.0533V33.543H48.2767ZM44.029 33.543H43.2525V34.3195H44.029V33.543ZM44.029 17.8733H38.1557V19.4264H44.029V17.8733ZM38.9322 18.6498V15.1887H37.3791V18.6498H38.9322ZM38.1557 15.9653H54.1501V14.4122H38.1557V15.9653ZM53.3735 15.1887V18.6498H54.9266V15.1887H53.3735ZM54.1501 17.8733H48.2767V19.4264H54.1501V17.8733ZM47.5002 18.6498V33.543H49.0533V18.6498H47.5002ZM48.2767 32.7664H44.029V34.3195H48.2767V32.7664ZM44.8056 33.543V18.6498H43.2525V33.543H44.8056ZM68.4527 27.6434V28.42H69.1718L69.2269 27.703L68.4527 27.6434ZM57.781 27.6434V26.8668H56.815L57.0226 27.8102L57.781 27.6434ZM59.1444 29.7148L59.5929 29.0808L59.1444 29.7148ZM63.7592 30.1605L64.0319 30.8878L64.0438 30.8831L63.7592 30.1605ZM65.3587 29.1117L65.9295 28.5853L65.3912 28.0016L64.8196 28.5527L65.3587 29.1117ZM67.5349 31.4716L68.1198 31.9825L68.5784 31.4575L68.1058 30.9451L67.5349 31.4716ZM57.4926 32.835L57.1374 33.5257L57.1453 33.5296L57.4926 32.835ZM54.6608 30.2392L53.9958 30.6403L54.6608 30.2392ZM54.6345 22.7664L53.9668 22.3699L53.9649 22.3731L54.6345 22.7664ZM57.3352 20.1706L57.7034 20.8543L57.7071 20.8523L57.3352 20.1706ZM64.9391 20.1182L65.3035 19.4324L64.9391 20.1182ZM67.5612 22.6877L66.8843 23.0685L66.8879 23.0748L66.8916 23.081L67.5612 22.6877ZM58.8822 23.1073L58.3851 22.5107L58.8822 23.1073ZM57.7285 25.2573L56.961 25.1393L56.8234 26.0339H57.7285V25.2573ZM64.6769 25.2573V26.0339H65.5848L65.4441 25.137L64.6769 25.2573ZM63.5232 23.1335L63.0164 23.722L63.0261 23.7301L63.5232 23.1335ZM67.7548 26.5421C67.7548 26.5326 67.7516 26.5983 67.7371 26.8015C67.7241 26.9829 67.7046 27.2434 67.6784 27.5838L69.2269 27.703C69.2772 27.05 69.3079 26.6339 69.3079 26.5421H67.7548ZM68.4527 26.8668H57.781V28.42H68.4527V26.8668ZM57.0226 27.8102C57.2555 28.8691 57.8181 29.7278 58.696 30.3488L59.5929 29.0808C59.0374 28.6879 58.691 28.1657 58.5394 27.4765L57.0226 27.8102ZM58.696 30.3488C59.5698 30.9669 60.6271 31.2517 61.8189 31.2517V29.6986C60.8782 29.6986 60.1524 29.4766 59.5929 29.0808L58.696 30.3488ZM61.8189 31.2517C62.6256 31.2517 63.3679 31.1366 64.0319 30.8877L63.4865 29.4334C63.0318 29.604 62.4806 29.6986 61.8189 29.6986V31.2517ZM64.0438 30.8831C64.7242 30.6151 65.3421 30.2065 65.8977 29.6707L64.8196 28.5527C64.3963 28.9609 63.948 29.2515 63.4746 29.438L64.0438 30.8831ZM64.7878 29.6382L66.9641 31.998L68.1058 30.9451L65.9295 28.5853L64.7878 29.6382ZM66.9501 30.9607C65.8063 32.27 64.1056 32.9762 61.714 32.9762V34.5293C64.4267 34.5293 66.6066 33.7147 68.1198 31.9825L66.9501 30.9607ZM61.714 32.9762C60.2243 32.9762 58.9394 32.6902 57.8398 32.1404L57.1453 33.5296C58.493 34.2035 60.0224 34.5293 61.714 34.5293V32.9762ZM57.8477 32.1444C56.7429 31.5762 55.9103 30.8073 55.3257 29.8381L53.9958 30.6403C54.7397 31.8736 55.795 32.8352 57.1374 33.5256L57.8477 32.1444ZM55.3257 29.8381C54.7408 28.8684 54.4409 27.7595 54.4409 26.4897H52.8878C52.8878 28.0167 53.2522 29.4075 53.9958 30.6403L55.3257 29.8381ZM54.4409 26.4897C54.4409 25.2354 54.7331 24.1321 55.3042 23.1597L53.9649 22.3731C53.2425 23.6033 52.8878 24.9821 52.8878 26.4897H54.4409ZM55.3023 23.1629C55.8952 22.1642 56.6923 21.3988 57.7034 20.8543L56.9671 19.4869C55.7057 20.166 54.7024 21.1311 53.9668 22.3699L55.3023 23.1629ZM57.7071 20.8523C58.738 20.29 59.8933 20.0032 61.1896 20.0032V18.4501C59.6541 18.4501 58.2399 18.7926 56.9634 19.4889L57.7071 20.8523ZM61.1896 20.0032C62.4552 20.0032 63.5782 20.2745 64.5748 20.8039L65.3035 19.4324C64.0626 18.7732 62.6859 18.4501 61.1896 18.4501V20.0032ZM64.5748 20.8039C65.5605 21.3276 66.3269 22.0774 66.8843 23.0685L68.238 22.307C67.5369 21.0606 66.5552 20.0974 65.3035 19.4324L64.5748 20.8039ZM66.8916 23.081C67.4584 24.0461 67.7548 25.191 67.7548 26.5421H69.3079C69.3079 24.9565 68.9575 23.5319 68.2308 22.2945L66.8916 23.081ZM61.2158 21.5441C60.133 21.5441 59.1722 21.8548 58.3851 22.5107L59.3794 23.7038C59.8509 23.3109 60.4458 23.0972 61.2158 23.0972V21.5441ZM58.3851 22.5107C57.5923 23.1714 57.1258 24.0678 56.961 25.1393L58.4961 25.3754C58.6109 24.629 58.9136 24.092 59.3794 23.7038L58.3851 22.5107ZM57.7285 26.0339H64.6769V24.4808H57.7285V26.0339ZM65.4441 25.137C65.2782 24.0796 64.8096 23.1946 64.0204 22.5369L63.0261 23.7301C63.4954 24.1212 63.7959 24.6521 63.9097 25.3777L65.4441 25.137ZM64.03 22.545C63.246 21.87 62.2919 21.5441 61.2158 21.5441V23.0972C61.9578 23.0972 62.5419 23.3132 63.0165 23.7219L64.03 22.545ZM81.5946 20.7999L81.0765 21.3784L81.0814 21.3827L81.5946 20.7999ZM83.3513 33.543V34.3195H84.1279V33.543H83.3513ZM79.5232 33.543H78.7466V34.3195H79.5232V33.543ZM79.5232 31.7862H80.2997V28.9279L78.8534 31.3933L79.5232 31.7862ZM72.3912 33.2021L72.0628 33.9058L72.0687 33.9085L72.3912 33.2021ZM70.582 31.6813L71.2335 31.2587L70.582 31.6813ZM71.4211 26.3848L70.9534 25.7649L70.9481 25.7689L71.4211 26.3848ZM79.261 25.2573V26.0339H80.0375V25.2573H79.261ZM78.4481 23.2122L77.9275 23.7885L77.9381 23.7977L78.4481 23.2122ZM73.7809 22.8451L74.0157 23.5854L74.0265 23.5818L73.7809 22.8451ZM71.9455 23.789L71.2548 24.1439L71.687 24.9852L72.428 24.3974L71.9455 23.789ZM70.4772 20.931L70.0299 20.2962L69.4778 20.6851L69.7864 21.2859L70.4772 20.931ZM73.2303 19.6724L73.0249 18.9235L73.0218 18.9243L73.2303 19.6724ZM78.1073 30.5276L78.4972 31.1992L78.5052 31.1946L78.5131 31.1897L78.1073 30.5276ZM79.261 29.0855L79.9914 29.3493L80.0375 29.2214V29.0855H79.261ZM79.261 27.6434H80.0375V26.8668H79.261V27.6434ZM74.5413 30.5538L74.0627 31.1654L74.0773 31.1768L74.0924 31.1875L74.5413 30.5538ZM76.5603 20.0032C78.6287 20.0032 80.095 20.4994 81.0765 21.3784L82.1126 20.2214C80.7518 19.0027 78.8619 18.4501 76.5603 18.4501V20.0032ZM81.0814 21.3827C82.0328 22.2205 82.5748 23.538 82.5748 25.4933H84.1279C84.1279 23.2533 83.4987 21.4419 82.1078 20.2171L81.0814 21.3827ZM82.5748 25.4933V33.543H84.1279V25.4933H82.5748ZM83.3513 32.7664H79.5232V34.3195H83.3513V32.7664ZM80.2997 33.543V31.7862H78.7466V33.543H80.2997ZM78.8534 31.3933C78.2743 32.3804 77.1625 32.9762 75.223 32.9762V34.5293C77.4789 34.5293 79.2338 33.8141 80.193 32.1792L78.8534 31.3933ZM75.223 32.9762C74.226 32.9762 73.3964 32.8073 72.7137 32.4957L72.0687 33.9085C72.9943 34.3311 74.0526 34.5293 75.223 34.5293V32.9762ZM72.7196 32.4984C72.0479 32.1849 71.5642 31.7685 71.2335 31.2587L69.9305 32.1039C70.439 32.8877 71.1614 33.4851 72.0628 33.9058L72.7196 32.4984ZM71.2335 31.2587C70.9011 30.7462 70.7293 30.1607 70.7293 29.4788H69.1762C69.1762 30.44 69.4239 31.3229 69.9305 32.1039L71.2335 31.2587ZM70.7293 29.4788C70.7293 28.3917 71.12 27.5951 71.894 27.0007L70.9481 25.7689C69.7644 26.6778 69.1762 27.9439 69.1762 29.4788H70.7293ZM71.8888 27.0048C72.6876 26.4021 74.0151 26.0339 76.0097 26.0339V24.4808C73.8789 24.4808 72.1473 24.8642 70.9534 25.7649L71.8888 27.0048ZM76.0097 26.0339H79.261V24.4808H76.0097V26.0339ZM80.0375 25.2573C80.0375 24.1998 79.709 23.2805 78.9582 22.6266L77.9381 23.7977C78.271 24.0877 78.4844 24.5319 78.4844 25.2573H80.0375ZM78.9687 22.6359C78.2285 21.9673 77.1947 21.7014 76.0097 21.7014V23.2545C76.9921 23.2545 77.584 23.4781 77.9276 23.7884L78.9687 22.6359ZM76.0097 21.7014C75.1721 21.7014 74.3463 21.838 73.5354 22.1084L74.0265 23.5818C74.6838 23.3627 75.3439 23.2545 76.0097 23.2545V21.7014ZM73.5462 22.1048C72.7539 22.356 72.0547 22.7112 71.4629 23.1806L72.428 24.3974C72.8501 24.0627 73.3745 23.7886 74.0156 23.5853L73.5462 22.1048ZM72.6362 23.4341L71.1679 20.5761L69.7864 21.2859L71.2548 24.1439L72.6362 23.4341ZM70.9244 21.5658C71.6095 21.0832 72.4432 20.6979 73.4388 20.4205L73.0218 18.9243C71.8848 19.2412 70.8831 19.695 70.0299 20.2962L70.9244 21.5658ZM73.4356 20.4213C74.4518 20.1427 75.4927 20.0032 76.5603 20.0032V18.4501C75.3555 18.4501 74.1764 18.6078 73.0249 18.9235L73.4356 20.4213ZM76.2456 31.7762C77.0656 31.7762 77.8236 31.5903 78.4972 31.1992L77.7173 29.8561C77.3072 30.0942 76.8241 30.223 76.2456 30.223V31.7762ZM78.5131 31.1897C79.2135 30.7604 79.7077 30.1349 79.9914 29.3493L78.5306 28.8218C78.3598 29.2947 78.0848 29.6306 77.7015 29.8655L78.5131 31.1897ZM80.0375 29.0855V27.6434H78.4844V29.0855H80.0375ZM79.261 26.8668H76.4554V28.42H79.261V26.8668ZM76.4554 26.8668C75.5561 26.8668 74.7468 27.0099 74.1415 27.4071C73.4791 27.8418 73.1617 28.5132 73.1617 29.2953H74.7148C74.7148 28.9761 74.8169 28.8216 74.9936 28.7056C75.2273 28.5522 75.6766 28.42 76.4554 28.42V26.8668ZM73.1617 29.2953C73.1617 30.0509 73.4667 30.699 74.0627 31.1654L75.0199 29.9423C74.8118 29.7795 74.7148 29.5884 74.7148 29.2953H73.1617ZM74.0924 31.1875C74.6858 31.6078 75.4297 31.7762 76.2456 31.7762V30.223C75.6282 30.223 75.2359 30.0942 74.9902 29.9202L74.0924 31.1875ZM89.9601 32.835L89.5967 33.5214L89.6088 33.5276L89.9601 32.835ZM87.1545 30.2392L86.4895 30.6403L86.4942 30.648L87.1545 30.2392ZM87.1545 22.7402L86.4942 22.3314L86.4896 22.3391L87.1545 22.7402ZM89.9601 20.1706L90.3155 20.8611L90.3193 20.8591L89.9601 20.1706ZM97.9049 20.1706L97.5196 20.8448L97.5259 20.8484L97.5323 20.8519L97.9049 20.1706ZM100.343 22.8188L100.711 23.5029L101.343 23.1634L101.054 22.5065L100.343 22.8188ZM97.1707 24.5232L96.4953 24.9065L96.8698 25.5663L97.5382 25.2073L97.1707 24.5232ZM91.3498 23.6317L90.8007 23.0826V23.0826L91.3498 23.6317ZM97.1707 28.4562L97.5426 27.7745L96.8653 27.4051L96.4914 28.0799L97.1707 28.4562ZM100.343 30.1868L101.051 30.5073L101.348 29.8504L100.715 29.505L100.343 30.1868ZM97.9049 32.8088L97.5241 32.132L97.5196 32.1346L97.9049 32.8088ZM94.0243 32.9762C92.6292 32.9762 91.397 32.6931 90.3114 32.1425L89.6088 33.5276C90.9355 34.2005 92.4127 34.5293 94.0243 34.5293V32.9762ZM90.3234 32.1487C89.2518 31.5813 88.4211 30.8098 87.8148 29.8305L86.4942 30.648C87.2514 31.8711 88.2911 32.8301 89.5968 33.5213L90.3234 32.1487ZM87.8195 29.8381C87.2346 28.8684 86.9347 27.7595 86.9347 26.4897H85.3816C85.3816 28.0167 85.746 29.4075 86.4896 30.6403L87.8195 29.8381ZM86.9347 26.4897C86.9347 25.2199 87.2346 24.111 87.8195 23.1413L86.4896 22.3391C85.746 23.5719 85.3816 24.9627 85.3816 26.4897H86.9347ZM87.8148 23.1489C88.4199 22.1715 89.2479 21.4105 90.3155 20.8611L89.6047 19.4801C88.295 20.1543 87.2526 21.1064 86.4942 22.3314L87.8148 23.1489ZM90.3193 20.8591C91.4033 20.2935 92.6327 20.0032 94.0243 20.0032V18.4501C92.4092 18.4501 90.9292 18.7891 89.6009 19.4821L90.3193 20.8591ZM94.0243 20.0032C95.3983 20.0032 96.5544 20.2933 97.5196 20.8448L98.2901 19.4963C97.0528 18.7893 95.6219 18.4501 94.0243 18.4501V20.0032ZM97.5323 20.8519C98.5025 21.3825 99.1953 22.1365 99.6324 23.1312L101.054 22.5065C100.478 21.1938 99.5447 20.1823 98.2775 19.4893L97.5323 20.8519ZM99.9759 22.1347L96.8032 23.8391L97.5382 25.2073L100.711 23.5029L99.9759 22.1347ZM97.8461 24.1399C96.9869 22.6262 95.6839 21.8063 93.998 21.8063V23.3594C95.0741 23.3594 95.8861 23.8331 96.4953 24.9065L97.8461 24.1399ZM93.998 21.8063C92.7436 21.8063 91.6576 22.2256 90.8007 23.0826L91.8989 24.1808C92.4403 23.6394 93.1199 23.3594 93.998 23.3594V21.8063ZM90.8007 23.0826C89.925 23.9583 89.5244 25.1258 89.5244 26.4897H91.0775C91.0775 25.4413 91.3762 24.7035 91.8989 24.1808L90.8007 23.0826ZM89.5244 26.4897C89.5244 27.8536 89.925 29.0211 90.8007 29.8968L91.8989 28.7986C91.3762 28.2759 91.0775 27.5381 91.0775 26.4897H89.5244ZM90.8007 29.8968C91.6576 30.7538 92.7436 31.1731 93.998 31.1731V29.62C93.1199 29.62 92.4403 29.34 91.8989 28.7986L90.8007 29.8968ZM93.998 31.1731C94.8214 31.1731 95.5793 30.9811 96.2452 30.5739C96.9088 30.1681 97.4391 29.5741 97.85 28.8326L96.4914 28.0799C96.1856 28.6319 95.8288 29.008 95.4349 29.249C95.0431 29.4885 94.573 29.62 93.998 29.62V31.1731ZM96.7988 29.138L99.9715 30.8685L100.715 29.505L97.5426 27.7745L96.7988 29.138ZM99.636 29.8663C99.2005 30.8274 98.5058 31.5798 97.5241 32.132L98.2856 33.4856C99.5414 32.7792 100.472 31.7836 101.051 30.5073L99.636 29.8663ZM97.5196 32.1346C96.5544 32.6861 95.3983 32.9762 94.0243 32.9762V34.5293C95.6219 34.5293 97.0528 34.1901 98.2901 33.483L97.5196 32.1346ZM115.392 20.7999L114.847 21.3535L114.852 21.3579L115.392 20.7999ZM117.017 33.543V34.3195H117.794V33.543H117.017ZM112.927 33.543H112.15V34.3195H112.927V33.543ZM112.193 23.6055L111.608 24.1169L111.616 24.126L112.193 23.6055ZM107.604 23.7366L108.161 24.2779L108.168 24.2702L107.604 23.7366ZM106.686 33.543V34.3195H107.463V33.543H106.686ZM102.596 33.543H101.819V34.3195H102.596V33.543ZM102.596 14.0875V13.3109H101.819V14.0875H102.596ZM106.686 14.0875H107.463V13.3109H106.686V14.0875ZM106.686 20.9048H105.91V22.7795L107.236 21.4539L106.686 20.9048ZM108.653 19.6724L108.918 20.4022L108.926 20.3996L108.933 20.3968L108.653 19.6724ZM111.17 20.0032C112.751 20.0032 113.95 20.4716 114.847 21.3535L115.936 20.2462C114.7 19.0306 113.085 18.4501 111.17 18.4501V20.0032ZM114.852 21.3579C115.735 22.2131 116.241 23.5352 116.241 25.4671H117.794C117.794 23.2736 117.216 21.4843 115.932 20.2418L114.852 21.3579ZM116.241 25.4671V33.543H117.794V25.4671H116.241ZM117.017 32.7664H112.927V34.3195H117.017V32.7664ZM113.703 33.543V26.0964H112.15V33.543H113.703ZM113.703 26.0964C113.703 24.8841 113.441 23.8289 112.769 23.0849L111.616 24.126C111.923 24.4658 112.15 25.0712 112.15 26.0964H113.703ZM112.777 23.0941C112.105 22.326 111.16 21.9898 110.069 21.9898V23.543C110.831 23.543 111.301 23.7662 111.608 24.1168L112.777 23.0941ZM110.069 21.9898C108.861 21.9898 107.822 22.3762 107.04 23.2029L108.168 24.2702C108.61 23.8034 109.214 23.543 110.069 23.543V21.9898ZM107.047 23.1952C106.243 24.0222 105.91 25.1955 105.91 26.5684H107.463C107.463 25.4241 107.741 24.7095 108.161 24.2779L107.047 23.1952ZM105.91 26.5684V33.543H107.463V26.5684H105.91ZM106.686 32.7664H102.596V34.3195H106.686V32.7664ZM103.373 33.543V14.0875H101.819V33.543H103.373ZM102.596 14.864H106.686V13.3109H102.596V14.864ZM105.91 14.0875V20.9048H107.463V14.0875H105.91ZM107.236 21.4539C107.692 20.9976 108.248 20.6458 108.918 20.4022L108.388 18.9426C107.519 19.2584 106.765 19.7281 106.137 20.3556L107.236 21.4539ZM108.933 20.3968C109.604 20.1375 110.347 20.0032 111.17 20.0032V18.4501C110.175 18.4501 109.24 18.613 108.373 18.948L108.933 20.3968ZM120.725 19.4364V18.6599H119.948V19.4364H120.725ZM124.815 19.4364H125.592V18.6599H124.815V19.4364ZM124.815 33.543V34.3195H125.592V33.543H124.815ZM120.725 33.543H119.948V34.3195H120.725V33.543ZM120.935 16.8144L120.407 17.3842H120.407L120.935 16.8144ZM120.935 13.5631L121.462 14.1329V14.1329L120.935 13.5631ZM124.606 13.5368L124.09 14.1173V14.1173L124.606 13.5368ZM124.606 16.8144L125.133 17.3842L125.139 17.379L125.144 17.3738L124.606 16.8144ZM120.725 20.213H124.815V18.6599H120.725V20.213ZM124.039 19.4364V33.543H125.592V19.4364H124.039ZM124.815 32.7664H120.725V34.3195H124.815V32.7664ZM121.502 33.543V19.4364H119.948V33.543H121.502ZM122.77 16.6933C122.179 16.6933 121.767 16.5266 121.462 16.2446L120.407 17.3842C121.047 17.9762 121.858 18.2465 122.77 18.2465V16.6933ZM121.462 16.2446C121.15 15.9555 121.003 15.6205 121.003 15.1887H119.45C119.45 16.0505 119.775 16.7993 120.407 17.3842L121.462 16.2446ZM121.003 15.1887C121.003 14.7569 121.15 14.422 121.462 14.1329L120.407 12.9933C119.775 13.5782 119.45 14.327 119.45 15.1887H121.003ZM121.462 14.1329C121.767 13.8509 122.179 13.6841 122.77 13.6841V12.131C121.858 12.131 121.047 12.4012 120.407 12.9933L121.462 14.1329ZM122.77 13.6841C123.37 13.6841 123.786 13.8473 124.09 14.1173L125.121 12.9564C124.481 12.3873 123.674 12.131 122.77 12.131V13.6841ZM124.09 14.1173C124.396 14.39 124.537 14.7035 124.537 15.1101H126.09C126.09 14.2581 125.759 13.5227 125.121 12.9564L124.09 14.1173ZM124.537 15.1101C124.537 15.5903 124.38 15.9534 124.067 16.255L125.144 17.3738C125.775 16.7664 126.09 15.9932 126.09 15.1101H124.537ZM124.078 16.2446C123.773 16.5266 123.361 16.6933 122.77 16.6933V18.2465C123.682 18.2465 124.494 17.9762 125.133 17.3842L124.078 16.2446ZM133.095 19.7511H132.319V20.5276H133.095V19.7511ZM136.714 19.7511H137.49V18.9745H136.714V19.7511ZM136.714 22.8975V23.6741H137.49V22.8975H136.714ZM133.2 22.8975V22.1209H132.424V22.8975H133.2ZM133.2 33.543V34.3195H133.977V33.543H133.2ZM129.11 33.543H128.333V34.3195H129.11V33.543ZM129.11 22.8975H129.886V22.1209H129.11V22.8975ZM126.933 22.8975H126.157V23.6741H126.933V22.8975ZM126.933 19.7511V18.9745H126.157V19.7511H126.933ZM129.11 19.7511V20.5276H129.886V19.7511H129.11ZM130.526 15.2936L129.982 14.7395L129.977 14.7445L130.526 15.2936ZM136.294 14.0875L136.1 14.8394L136.114 14.843L136.128 14.8461L136.294 14.0875ZM137.684 14.6381L138.414 14.903L138.622 14.33L138.115 13.992L137.684 14.6381ZM136.609 17.601L136.162 18.2361L136.992 18.8205L137.339 17.8659L136.609 17.601ZM133.095 20.5276H136.714V18.9745H133.095V20.5276ZM135.937 19.7511V22.8975H137.49V19.7511H135.937ZM136.714 22.1209H133.2V23.6741H136.714V22.1209ZM132.424 22.8975V33.543H133.977V22.8975H132.424ZM133.2 32.7664H129.11V34.3195H133.2V32.7664ZM129.886 33.543V22.8975H128.333V33.543H129.886ZM129.11 22.1209H126.933V23.6741H129.11V22.1209ZM127.71 22.8975V19.7511H126.157V22.8975H127.71ZM126.933 20.5276H129.11V18.9745H126.933V20.5276ZM129.886 19.7511V19.1218H128.333V19.7511H129.886ZM129.886 19.1218C129.886 17.6745 130.305 16.612 131.075 15.8427L129.977 14.7445C128.858 15.8631 128.333 17.3527 128.333 19.1218H129.886ZM131.07 15.8477C131.848 15.0837 132.976 14.6543 134.564 14.6543V13.1011C132.69 13.1011 131.126 13.6156 129.982 14.7395L131.07 15.8477ZM134.564 14.6543C135.116 14.6543 135.627 14.7174 136.1 14.8394L136.488 13.3355C135.877 13.1779 135.235 13.1011 134.564 13.1011V14.6543ZM136.128 14.8461C136.62 14.9536 136.986 15.1065 137.253 15.2842L138.115 13.992C137.647 13.6802 137.087 13.466 136.46 13.3288L136.128 14.8461ZM136.954 14.3732L135.879 17.3361L137.339 17.8659L138.414 14.903L136.954 14.3732ZM137.056 16.9659C136.441 16.5334 135.731 16.3263 134.957 16.3263V17.8794C135.441 17.8794 135.833 18.0044 136.162 18.2361L137.056 16.9659ZM134.957 16.3263C134.197 16.3263 133.49 16.5384 132.986 17.0914C132.496 17.6305 132.319 18.3637 132.319 19.148H133.872C133.872 18.5688 134.005 18.2794 134.135 18.1368C134.252 18.0081 134.476 17.8794 134.957 17.8794V16.3263ZM132.319 19.148V19.7511H133.872V19.148H132.319ZM153.009 19.4364L153.724 19.7405L154.184 18.6599H153.009V19.4364ZM146.638 34.4082L145.923 34.1042L145.919 34.1126L145.916 34.1212L146.638 34.4082ZM144.225 37.8431L143.784 37.2042L143.778 37.208L144.225 37.8431ZM138.614 38.4986L138.849 37.7584L138.614 38.4986ZM136.857 37.5547L136.167 37.1999L135.891 37.7366L136.343 38.1363L136.857 37.5547ZM138.352 34.6442L138.868 34.0638L138.119 33.3981L137.661 34.2895L138.352 34.6442ZM139.427 35.2997L139.144 36.023L139.154 36.0268L139.427 35.2997ZM142.023 35.1162L141.557 34.4949L141.547 34.5022L141.538 34.5098L142.023 35.1162ZM142.967 33.779L143.676 34.0943L143.682 34.081L143.688 34.0674L142.967 33.779ZM143.019 33.6479L143.74 33.9363L143.86 33.6371L143.733 33.3412L143.019 33.6479ZM136.91 19.4364V18.6599H135.731L136.196 19.7431L136.91 19.4364ZM141.131 19.4364L141.849 19.1396L141.65 18.6599H141.131V19.4364ZM145.091 29.0068L144.373 29.3037L145.088 31.0325L145.808 29.3054L145.091 29.0068ZM149.076 19.4364V18.6599H148.558L148.359 19.1379L149.076 19.4364ZM152.295 19.1323L145.923 34.1042L147.352 34.7123L153.724 19.7405L152.295 19.1323ZM145.916 34.1212C145.3 35.6709 144.571 36.6603 143.784 37.2042L144.667 38.482C145.802 37.6974 146.682 36.3969 147.359 34.6953L145.916 34.1212ZM143.778 37.208C142.986 37.7656 142.004 38.0629 140.79 38.0629V39.616C142.269 39.616 143.577 39.2491 144.672 38.4782L143.778 37.208ZM140.79 38.0629C140.138 38.0629 139.492 37.9621 138.849 37.7584L138.38 39.2389C139.17 39.4896 139.975 39.616 140.79 39.616V38.0629ZM138.849 37.7584C138.212 37.5563 137.728 37.2883 137.372 36.973L136.343 38.1363C136.896 38.6252 137.584 38.9865 138.38 39.2389L138.849 37.7584ZM137.548 37.9094L139.043 34.999L137.661 34.2895L136.167 37.1999L137.548 37.9094ZM137.836 35.2246C138.221 35.5669 138.659 35.833 139.144 36.0229L139.71 34.5766C139.391 34.4518 139.112 34.281 138.868 34.0638L137.836 35.2246ZM139.154 36.0268C139.651 36.2131 140.154 36.3123 140.659 36.3123V34.7592C140.361 34.7592 140.042 34.701 139.7 34.5726L139.154 36.0268ZM140.659 36.3123C141.35 36.3123 141.989 36.1376 142.508 35.7226L141.538 34.5098C141.357 34.6542 141.087 34.7592 140.659 34.7592V36.3123ZM142.489 35.7374C142.989 35.3626 143.371 34.7816 143.676 34.0943L142.257 33.4636C142.003 34.0349 141.756 34.3453 141.557 34.4949L142.489 35.7374ZM143.688 34.0674L143.74 33.9363L142.298 33.3594L142.246 33.4905L143.688 34.0674ZM143.733 33.3412L137.623 19.1297L136.196 19.7431L142.306 33.9545L143.733 33.3412ZM136.91 20.213H141.131V18.6599H136.91V20.213ZM140.414 19.7333L144.373 29.3037L145.808 28.71L141.849 19.1396L140.414 19.7333ZM145.808 29.3054L149.793 19.735L148.359 19.1379L144.374 28.7083L145.808 29.3054ZM149.076 20.213H153.009V18.6599H149.076V20.213Z" fill="#2EA2DB"/>
<g clip-path="url(#clip0)">
<path d="M22.3339 25.1993C15.3753 25.1993 9.73427 19.5583 9.73427 12.5997C9.73427 5.64106 15.3753 0 22.3339 0C29.2925 0 34.9336 5.64106 34.9336 12.5997C34.9336 19.5583 29.2925 25.1993 22.3339 25.1993Z" fill="#2EA2DB"/>
<path d="M2.14699 38.2305H5.51172V45.1031H2.14699C1.35954 45.1031 0.715223 44.4587 0.715223 43.6713V39.6622C0.715223 38.8747 1.35954 38.2305 2.14699 38.2305Z" fill="#F16051"/>
<path d="M2.1459 45.8162H5.51063C5.94021 45.8162 6.22656 45.5298 6.22656 45.1002V38.2276C6.22656 37.7981 5.94021 37.5117 5.51063 37.5117H2.1459C0.928877 37.5117 -0.00179386 38.4424 -0.00179386 39.6594V43.6684C-0.00179386 44.8855 0.928877 45.8162 2.1459 45.8162ZM4.7947 44.3844H2.1459C1.71633 44.3844 1.42997 44.098 1.42997 43.6685V39.6595C1.42997 39.2299 1.71633 38.9436 2.1459 38.9436H4.7947V44.3844Z" fill="#193651"/>
<path d="M38.5154 45.103V38.2305L45.1016 41.6667L38.5154 45.103Z" fill="#FDBF5E"/>
<path d="M38.5143 45.8154C38.6576 45.8154 38.7291 45.8154 38.8723 45.7438L45.4585 42.3076C45.6732 42.1644 45.8164 41.9496 45.8164 41.6633C45.8164 41.3769 45.6732 41.1622 45.4584 41.0189L38.8722 37.5827C38.6575 37.4395 38.3711 37.5111 38.1563 37.5827C37.9415 37.7259 37.7983 37.9407 37.7983 38.227V45.0996C37.7983 45.3143 37.9415 45.6007 38.1563 45.7439C38.228 45.8154 38.3711 45.8154 38.5143 45.8154ZM43.5256 41.6633L39.1587 43.9541V39.3724L43.5256 41.6633Z" fill="#193651"/>
<path d="M5.58456 38.2305H38.5156V45.1031H5.58456V38.2305Z" fill="#E1E6E9"/>
<path d="M5.51316 45.8162H38.4442C38.8738 45.8162 39.1602 45.5298 39.1602 45.1002V38.2276C39.1602 37.7981 38.8738 37.5117 38.4442 37.5117H5.51316C5.08358 37.5117 4.79723 37.7981 4.79723 38.2276V45.1002C4.79732 45.5298 5.15528 45.8162 5.51316 45.8162ZM37.7999 44.3844H6.3007V38.9436H37.7999V44.3844Z" fill="#193651"/>
<path d="M7.73152 40.5195H36.3672V42.8104H7.73152V40.5195Z" fill="white"/>
<path d="M13.4594 33.0742H38.5156V38.1571H13.4594V33.0742Z" fill="#2EA2DB"/>
<path d="M13.4583 38.9444H38.5145C38.9441 38.9444 39.2305 38.658 39.2305 38.2285V33.1456C39.2305 32.716 38.9441 32.4297 38.5145 32.4297H13.4583C13.0288 32.4297 12.7424 32.716 12.7424 33.1456V38.2285C12.7424 38.5864 13.0288 38.9444 13.4583 38.9444ZM37.7986 37.5126H14.1742V33.8616H37.7986V37.5126Z" fill="#193651"/>
<path d="M34.9364 33.8633H35.4375V37.5144H34.9364V33.8633Z" fill="white"/>
<path d="M33.0759 33.8633H34.293V37.5144H33.0759V33.8633Z" fill="white"/>
<path d="M16.4794 33.7969H16.9805V37.448H16.4794V33.7969Z" fill="white"/>
<path d="M17.6111 33.7969H18.8281V37.448H17.6111V33.7969Z" fill="white"/>
<path d="M13.4594 27.9922H38.5156V33.075H13.4594V27.9922Z" fill="#F16051"/>
<path d="M13.4583 33.7921H38.5145C38.9441 33.7921 39.2305 33.5057 39.2305 33.0761V27.9933C39.2305 27.5637 38.9441 27.2773 38.5145 27.2773H13.4583C13.0288 27.2773 12.7424 27.5637 12.7424 27.9933V33.0761C12.7424 33.5057 13.0288 33.7921 13.4583 33.7921ZM37.7986 32.3602H14.1742V28.7091H37.7986C37.7986 28.7092 37.7986 32.3602 37.7986 32.3602Z" fill="#193651"/>
<path d="M34.9364 28.707H35.4375V32.3581H34.9364V28.707Z" fill="white"/>
<path d="M33.0759 28.707H34.293V32.3581H33.0759V28.707Z" fill="white"/>
<path d="M16.4794 28.7656H16.9805V32.4167H16.4794V28.7656Z" fill="white"/>
<path d="M17.6111 28.7656H18.8281V32.4167H17.6111V28.7656Z" fill="white"/>
<path d="M2.86185 34.9336H11.3093C12.5264 34.9336 13.457 35.8643 13.457 37.0813V38.1551H0.714145V37.0813C0.714237 35.9358 1.64491 34.9336 2.86185 34.9336Z" fill="white"/>
<path d="M2.86476 34.2188H11.3122C12.8872 34.2188 14.1758 35.5074 14.1758 37.0823V38.1561C14.1758 38.5857 13.8894 38.872 13.4598 38.872H0.716963C0.287386 38.872 0.00103188 38.5857 0.00103188 38.1561V37.0823C0.00121689 35.5074 1.28986 34.2188 2.86476 34.2188ZM1.43299 37.5119H12.7441V37.1539C12.7441 36.3665 12.0998 35.7221 11.3123 35.7221H2.86485C2.0774 35.7221 1.43308 36.3665 1.43308 37.1539V37.5119H1.43299Z" fill="#193651"/>
<path d="M8.23454 35.6503C8.5925 35.5787 8.80725 35.1492 8.73564 34.7912L4.7982 20.187L19.6173 5.22486C19.9036 4.93851 19.9036 4.50893 19.6173 4.22258C19.3309 3.93622 18.9013 3.93622 18.615 4.22258L3.50965 19.471C3.29491 19.6858 3.29491 19.9006 3.29491 20.187L7.37548 35.1491C7.5187 35.5071 7.87657 35.7219 8.23454 35.6503Z" fill="#193651"/>
<path d="M30.4979 14.1016H31.9297V15.3902H30.4979V14.1016Z" fill="#193651"/>
<path d="M30.5798 19.0128L29.3398 18.2969L29.9841 17.181L31.224 17.8969L30.5798 19.0128Z" fill="#193651"/>
<path d="M27.6693 21.521L26.9531 20.2812L28.069 19.6367L28.7851 20.8764L27.6693 21.521Z" fill="#193651"/>
<path d="M23.8403 20.7617H25.1289V22.1935H23.8403V20.7617Z" fill="#193651"/>
<path d="M15.9646 3.72266L19.0429 6.87264L29.7812 10.2373L19.9736 20.045L16.5373 9.3066L13.459 6.22832L15.9646 3.72266Z" fill="#FDBF5E"/>
<path d="M19.9725 20.762C20.1873 20.762 20.3305 20.6903 20.4736 20.5472L30.2814 10.7395C30.4246 10.5963 30.4961 10.3099 30.4961 10.0952C30.4245 9.88042 30.2814 9.66559 29.995 9.59407L19.4714 6.30095L16.4647 3.22258C16.1783 2.93622 15.7487 2.93622 15.4624 3.22258L12.9567 5.72824C12.8135 5.87147 12.742 6.0146 12.742 6.22934C12.742 6.44408 12.8136 6.58731 12.9567 6.73044L15.9635 9.7372L19.2566 20.2608C19.3282 20.4755 19.5429 20.6903 19.7577 20.7619C19.8293 20.762 19.9009 20.762 19.9725 20.762ZM28.42 10.5246L20.2589 18.6858L17.2521 9.09279C17.2521 8.94956 17.1805 8.87804 17.1089 8.80643L14.5317 6.22925L15.9635 4.79748L18.5407 7.37466C18.6123 7.44628 18.7554 7.51789 18.827 7.51789L28.42 10.5246Z" fill="#193651"/>
<path d="M20.904 9.87891L25.6289 11.3822L21.1189 15.8923L19.6155 11.1675L20.904 9.87891Z" fill="white"/>
<path d="M27.2757 12.8125C28.5643 14.1011 28.5643 16.2487 27.2757 17.5374C25.9871 18.826 23.8395 18.826 22.5508 17.5374L27.2757 12.8125Z" fill="white"/>
<path d="M24.9116 19.2565C25.9854 19.2565 26.9877 18.8269 27.7752 18.0395C28.5626 17.252 28.9922 16.2498 28.9922 15.176C28.9922 14.1022 28.5626 13.0999 27.7752 12.3124C27.4888 12.0261 27.0592 12.0261 26.7729 12.3124L22.048 17.0373C21.9048 17.1805 21.8332 17.3237 21.8332 17.5384C21.8332 17.7531 21.9049 17.8964 22.048 18.0395C22.8355 18.8269 23.8377 19.2565 24.9116 19.2565ZM27.2025 13.8873C27.4172 14.2453 27.5604 14.7464 27.5604 15.176C27.5604 15.8919 27.2741 16.5361 26.773 17.0373C25.9139 17.8248 24.6253 18.0396 23.6231 17.4669L27.2025 13.8873Z" fill="#193651"/>
<path d="M4.00985 22.0506C2.86326 22.0506 1.93376 21.1211 1.93376 19.9745C1.93376 18.8279 2.86326 17.8984 4.00985 17.8984C5.15644 17.8984 6.08594 18.8279 6.08594 19.9745C6.08594 21.1211 5.15644 22.0506 4.00985 22.0506Z" fill="white"/>
<path d="M4.00876 22.7637C5.51214 22.7637 6.80078 21.5467 6.80078 19.9717C6.80078 18.4683 5.58375 17.1797 4.00876 17.1797C2.50538 17.1797 1.21674 18.3967 1.21674 19.9717C1.21674 21.4751 2.50538 22.7637 4.00876 22.7637ZM4.00876 18.6115C4.72469 18.6115 5.36892 19.1843 5.36892 19.9717C5.36892 20.6876 4.79621 21.3319 4.00876 21.3319C3.29283 21.3319 2.6486 20.7592 2.6486 19.9717C2.64851 19.2559 3.29283 18.6115 4.00876 18.6115Z" fill="#193651"/>
</g>
<defs>
<clipPath id="clip0">
<rect width="45.8171" height="45.8171" fill="white" transform="matrix(-1 0 0 1 45.8164 0)"/>
</clipPath>
</defs>
</svg>
