<svg width="39" height="39" viewBox="0 0 39 39" fill="none" xmlns="http://www.w3.org/2000/svg">
<path d="M16.5819 2.61221L18.5142 0.629608C19.3324 -0.209869 20.6555 -0.209869 21.465 0.629608L38.3863 17.9818C39.2046 18.8213 39.2046 20.1787 38.3863 21.0093L21.465 38.3704C20.6468 39.2099 19.3237 39.2099 18.5142 38.3704L16.5819 36.3878C15.7549 35.5394 15.7723 34.1551 16.6167 33.3246L27.1055 23.0722H2.08905C0.931369 23.0722 0 22.1167 0 20.9289V18.0711C0 16.8833 0.931369 15.9278 2.08905 15.9278H27.1055L16.6167 5.67541C15.7636 4.84486 15.7462 3.46061 16.5819 2.61221Z" fill="white"/>
</svg>
