<svg width="39" height="39" viewBox="0 0 39 39" fill="none" xmlns="http://www.w3.org/2000/svg">
<path d="M22.4181 36.3878L20.4858 38.3704C19.6676 39.2099 18.3445 39.2099 17.535 38.3704L0.613659 21.0182C-0.204553 20.1787 -0.204553 18.8213 0.613659 17.9907L17.535 0.629608C18.3532 -0.209869 19.6763 -0.209869 20.4858 0.629608L22.4181 2.61221C23.2451 3.46061 23.2277 4.84486 22.3833 5.67541L11.8945 15.9278H36.9109C38.0686 15.9278 39 16.8833 39 18.0711V20.9289C39 22.1167 38.0686 23.0722 36.9109 23.0722H11.8945L22.3833 33.3246C23.2364 34.1551 23.2538 35.5394 22.4181 36.3878Z" fill="white"/>
</svg>
