<svg width="39" height="38" viewBox="0 0 39 38" fill="none" xmlns="http://www.w3.org/2000/svg">
<path d="M24.4252 25.7141C24.4252 26.455 23.9001 27.0551 23.2518 27.0551H16.2113C15.563 27.0551 15.0379 26.455 15.0379 25.7141V21.691H0.957031V33.7603C0.957031 35.9059 2.5998 37.7834 4.47725 37.7834H34.9858C36.8633 37.7834 38.5061 35.9059 38.5061 33.7603V21.691H24.4252V25.7141ZM34.9858 8.28059H29.1188V4.25748C29.1188 2.11183 27.476 0.234375 25.5986 0.234375H13.8645C11.9871 0.234375 10.3443 2.11183 10.3443 4.25748V8.28059H4.47725C2.5998 8.28059 0.957031 10.158 0.957031 12.3037V19.0089H38.5061V12.3037C38.5061 10.158 36.8633 8.28059 34.9858 8.28059ZM24.4252 8.28059H15.0379V5.59852H24.4252V8.28059Z" fill="#F16051"/>
</svg>
