<svg width="25" height="26" viewBox="0 0 25 26" fill="none" xmlns="http://www.w3.org/2000/svg">
<path d="M21.7267 0.171875H3.00939C2.33246 0.171875 1.68326 0.459392 1.2046 0.971174C0.72594 1.48296 0.457031 2.17708 0.457031 2.90085L0.457031 22.9134C0.457031 23.6371 0.72594 24.3313 1.2046 24.843C1.68326 25.3548 2.33246 25.6423 3.00939 25.6423H10.3076V16.9829H6.95758V12.9071H10.3076V9.80062C10.3076 6.26716 12.275 4.31537 15.2884 4.31537C16.7315 4.31537 18.2406 4.59055 18.2406 4.59055V8.05862H16.5779C14.9396 8.05862 14.4285 9.14566 14.4285 10.2606V12.9071H18.0859L17.501 16.9829H14.4285V25.6423H21.7267C22.4036 25.6423 23.0528 25.3548 23.5315 24.843C24.0102 24.3313 24.2791 23.6371 24.2791 22.9134V2.90085C24.2791 2.17708 24.0102 1.48296 23.5315 0.971174C23.0528 0.459392 22.4036 0.171875 21.7267 0.171875Z" fill="white"/>
</svg>
