<svg width="28" height="23" viewBox="0 0 28 23" fill="none" xmlns="http://www.w3.org/2000/svg">
<path d="M27.4399 7.70904C27.6472 7.53279 27.9557 7.69767 27.9557 7.97625V19.6028C27.9557 21.1094 26.8124 22.3318 25.4033 22.3318H3.28283C1.87371 22.3318 0.730469 21.1094 0.730469 19.6028V7.98194C0.730469 7.69767 1.03356 7.53848 1.24626 7.71472C2.43736 8.70398 4.01663 9.96044 9.4404 14.1733C10.5624 15.0488 12.4554 16.8909 14.3431 16.8795C16.2414 16.8966 18.1716 15.0147 19.251 14.1733C24.6748 9.96044 26.2488 8.69829 27.4399 7.70904ZM14.3431 15.0545C15.5767 15.0773 17.3527 13.3944 18.246 12.7008C25.3023 7.22578 25.8393 6.74821 27.4665 5.38372C27.7749 5.12788 27.9557 4.72991 27.9557 4.30919V3.22897C27.9557 1.72235 26.8124 0.5 25.4033 0.5H3.28283C1.87371 0.5 0.730469 1.72235 0.730469 3.22897V4.30919C0.730469 4.72991 0.911261 5.1222 1.21967 5.38372C2.8468 6.74253 3.38386 7.22578 10.4401 12.7008C11.3334 13.3944 13.1094 15.0773 14.3431 15.0545Z" fill="white"/>
</svg>
