<svg width="25" height="26" viewBox="0 0 25 26" fill="none" xmlns="http://www.w3.org/2000/svg">
<path d="M12.1039 6.37888C8.72204 6.37888 5.9942 9.29548 5.9942 12.9114C5.9942 16.5273 8.72204 19.4439 12.1039 19.4439C15.4858 19.4439 18.2136 16.5273 18.2136 12.9114C18.2136 9.29548 15.4858 6.37888 12.1039 6.37888ZM12.1039 17.1584C9.91845 17.1584 8.1318 15.2538 8.1318 12.9114C8.1318 10.569 9.91314 8.6644 12.1039 8.6644C14.2947 8.6644 16.076 10.569 16.076 12.9114C16.076 15.2538 14.2894 17.1584 12.1039 17.1584ZM19.8886 6.11167C19.8886 6.95879 19.2505 7.63535 18.4635 7.63535C17.6712 7.63535 17.0385 6.9531 17.0385 6.11167C17.0385 5.27023 17.6766 4.58799 18.4635 4.58799C19.2505 4.58799 19.8886 5.27023 19.8886 6.11167ZM23.9352 7.65809C23.8448 5.61704 23.4087 3.80909 22.0103 2.31953C20.6171 0.829957 18.9262 0.363756 17.0172 0.26142C15.0498 0.142027 9.15275 0.142027 7.1853 0.26142C5.28167 0.358071 3.59073 0.824272 2.19225 2.31384C0.793767 3.80341 0.363057 5.61136 0.267343 7.65241C0.155677 9.75599 0.155677 16.0611 0.267343 18.1647C0.357739 20.2057 0.793767 22.0137 2.19225 23.5032C3.59073 24.9928 5.27635 25.459 7.1853 25.5613C9.15275 25.6807 15.0498 25.6807 17.0172 25.5613C18.9262 25.4647 20.6171 24.9985 22.0103 23.5032C23.4034 22.0137 23.8395 20.2057 23.9352 18.1647C24.0468 16.0611 24.0468 9.76168 23.9352 7.65809ZM21.3934 20.4218C20.9787 21.5361 20.1758 22.3946 19.1282 22.8437C17.5596 23.5089 13.8374 23.3554 12.1039 23.3554C10.3704 23.3554 6.64293 23.5032 5.0796 22.8437C4.03739 22.4003 3.23446 21.5418 2.81439 20.4218C2.19225 18.7446 2.33582 14.7648 2.33582 12.9114C2.33582 11.0579 2.19757 7.0725 2.81439 5.401C3.22914 4.28666 4.03207 3.42817 5.0796 2.97903C6.64824 2.31384 10.3704 2.46734 12.1039 2.46734C13.8374 2.46734 17.5649 2.31952 19.1282 2.97903C20.1704 3.42249 20.9734 4.28098 21.3934 5.401C22.0156 7.07818 21.872 11.0579 21.872 12.9114C21.872 14.7648 22.0156 18.7503 21.3934 20.4218Z" fill="white"/>
</svg>
