<svg width="19" height="20" viewBox="0 0 19 20" fill="none" xmlns="http://www.w3.org/2000/svg">
<path d="M16.7424 19.3976H2.19815C1.10279 19.3976 0.214844 18.5097 0.214844 17.4143V2.87003C0.214844 1.77466 1.10279 0.886719 2.19815 0.886719H16.7424C17.8378 0.886719 18.7257 1.77466 18.7257 2.87003V17.4143C18.7257 18.5097 17.8378 19.3976 16.7424 19.3976ZM8.28501 15.3459L15.8877 7.74322C16.1458 7.48506 16.1458 7.06646 15.8877 6.8083L14.9528 5.87337C14.6946 5.61521 14.276 5.61517 14.0178 5.87337L7.81752 12.0736L4.92276 9.17885C4.6646 8.92069 4.246 8.92069 3.9878 9.17885L3.05288 10.1138C2.79471 10.3719 2.79471 10.7905 3.05288 11.0487L7.35004 15.3459C7.60824 15.6041 8.0268 15.6041 8.28501 15.3459Z" fill="#2EA2DB"/>
</svg>
