<svg width="28" height="24" viewBox="0 0 28 24" fill="none" xmlns="http://www.w3.org/2000/svg">
<path d="M24.4266 6.22794C24.4439 6.48651 24.4439 6.74514 24.4439 7.00371C24.4439 14.8905 18.8296 23.9779 8.56833 23.9779C5.40702 23.9779 2.47031 22.9989 0 21.2997C0.449162 21.3551 0.88099 21.3736 1.34743 21.3736C3.95589 21.3736 6.35713 20.4316 8.27465 18.8247C5.82162 18.7693 3.7659 17.0516 3.05762 14.6873C3.40315 14.7427 3.74862 14.7797 4.11143 14.7797C4.61238 14.7797 5.11339 14.7058 5.57978 14.5765C3.02311 14.0224 1.10554 11.6213 1.10554 8.72144V8.64758C1.84833 9.09087 2.71215 9.36792 3.62765 9.40482C2.12473 8.33352 1.14011 6.50499 1.14011 4.4363C1.14011 3.3281 1.41645 2.31224 1.90018 1.42566C4.64689 5.04583 8.7756 7.40999 13.4052 7.66862C13.3189 7.22533 13.267 6.76362 13.267 6.30185C13.267 3.0141 15.7546 0.335938 18.8468 0.335938C20.4533 0.335938 21.9044 1.05628 22.9237 2.21991C24.1847 1.96133 25.3939 1.46261 26.465 0.779228C26.0504 2.16453 25.1694 3.32816 24.012 4.06692C25.1349 3.93769 26.2232 3.60515 27.2251 3.14344C26.4651 4.32549 25.5149 5.37826 24.4266 6.22794Z" fill="white"/>
</svg>
