<svg width="39" height="38" viewBox="0 0 39 38" fill="none" xmlns="http://www.w3.org/2000/svg">
<path d="M36.3681 18.5228L29.2836 15.4891V6.39617C29.2836 5.13909 28.6016 4.0161 27.5675 3.57193L20.2337 0.429223C19.6397 0.169426 18.9796 0.169426 18.3783 0.429223L11.0445 3.57193C10.0104 4.0161 9.32837 5.13909 9.32837 6.39617V15.4891L2.24393 18.5228C1.2172 18.967 0.535156 20.09 0.535156 21.3471V30.574C0.535156 31.7138 1.09986 32.7614 1.99458 33.2726L9.32837 37.4628C10.0691 37.8902 10.9491 37.8902 11.6899 37.4628L19.3097 33.105L26.9295 37.4628C27.6702 37.8902 28.5502 37.8902 29.291 37.4628L36.6248 33.2726C37.5195 32.7614 38.0842 31.7138 38.0842 30.574V21.3471C38.0842 20.09 37.4021 18.967 36.3681 18.5228ZM26.7901 15.5561L20.5564 18.2295V12.514L26.7901 9.41316V15.5561ZM11.8292 6.27884L19.3097 3.07747L26.7901 6.27884V6.32912L19.3097 9.79867L11.8292 6.32912V6.27884ZM17.9896 30.6746L11.7559 34.2363V27.6073L17.9896 24.3557V30.6746ZM17.9896 21.2884L10.5091 24.7579L3.02865 21.2884V21.2381L10.5091 18.0367L17.9896 21.2381V21.2884ZM35.5907 30.6746L29.357 34.2363V27.6073L35.5907 24.3557V30.6746ZM35.5907 21.2884L28.1102 24.7579L20.6298 21.2884V21.2381L28.1102 18.0367L35.5907 21.2381V21.2884Z" fill="#F16051"/>
</svg>
